<?xml version="1.0" encoding="UTF-8" standalone="no"?>
<svg
   xmlns:dc="http://purl.org/dc/elements/1.1/"
   xmlns:cc="http://creativecommons.org/ns#"
   xmlns:rdf="http://www.w3.org/1999/02/22-rdf-syntax-ns#"
   xmlns:svg="http://www.w3.org/2000/svg"
   xmlns="http://www.w3.org/2000/svg"
   width="39.988903mm"
   height="45.351788mm"
   viewBox="0 0 141.69297 160.69531"
   id="svg3476"
   version="1.1">
  <defs
     id="defs3478" />
  <metadata
     id="metadata3481">
    <rdf:RDF>
      <cc:Work
         rdf:about="">
        <dc:format>image/svg+xml</dc:format>
        <dc:type
           rdf:resource="http://purl.org/dc/dcmitype/StillImage" />
        <dc:title></dc:title>
      </cc:Work>
    </rdf:RDF>
  </metadata>
  <polygon
     transform="matrix(0.390625,0,0,0.390625,-29.15352,-39.3047)"
     id="polygon2989"
     points="404.321,470.819 255.778,512 107.644,470.877 74.633,100.62 437.367,100.62 "
     style="fill:#264de4" />
  <polygon
     transform="matrix(0.390625,0,0,0.390625,-29.15352,-39.3047)"
     id="polygon2991"
     points="256,480.523 376.03,447.246 404.27,130.894 256,130.894 "
     style="fill:#2965f1" />
  <polygon
     transform="matrix(0.390625,0,0,0.390625,-29.15352,-39.3047)"
     id="polygon2993"
     points="256,268.217 150.31,268.217 154.38,313.627 256,313.627 "
     style="fill:#ebebeb" />
  <polygon
     transform="matrix(0.390625,0,0,0.390625,-29.15352,-39.3047)"
     id="polygon2995"
     points="255.843,176.305 142.132,176.305 146.26,221.716 256,221.716 256,176.305 "
     style="fill:#ebebeb" />
  <polygon
     transform="matrix(0.390625,0,0,0.390625,-29.15352,-39.3047)"
     id="polygon2997"
     points="255.801,386.206 205.227,372.55 201.994,336.333 177.419,336.333 156.409,336.333 162.771,407.634 255.791,433.457 256,433.399 256,386.153 "
     style="fill:#ebebeb" />
  <polygon
     transform="matrix(0.390625,0,0,0.390625,-29.15352,-39.3047)"
     id="polygon3005"
     points="319.831,221.716 315.699,268.217 255.843,268.217 255.843,313.627 311.761,313.627 306.49,372.521 255.843,386.191 255.843,433.435 348.937,407.634 349.62,399.962 360.291,280.411 361.399,268.217 369.597,176.305 255.843,176.305 255.843,221.716 "
     style="fill:#ffffff" />
</svg>
