<?xml version="1.0" encoding="UTF-8" standalone="no"?>
  <svg
    xmlns:dc="http://purl.org/dc/elements/1.1/"
   xmlns:cc="http://creativecommons.org/ns#"
   xmlns:rdf="http://www.w3.org/1999/02/22-rdf-syntax-ns#"
   xmlns:svg="http://www.w3.org/2000/svg"
   xmlns="http://www.w3.org/2000/svg"
   id="svgFaq"
   viewBox="0 0 57.234146 58.235439"
   height="100"
   width="100">
  <defs
     id="defs4197" />
  <metadata
     id="metadata4200">
    <rdf:RDF>
      <cc:Work
         rdf:about="">
        <dc:format>image/svg+xml</dc:format>
        <dc:type
           rdf:resource="http://purl.org/dc/dcmitype/StillImage" />
        <dc:title></dc:title>
      </cc:Work>
    </rdf:RDF>
  </metadata>
  <g
     transform="translate(-50.44739,-950.12226)"
     style="display:inline"
     id="layer1">
    <path
       id="pathBubble1"
       d="m 60.15442,950.12227 c -5.37795,0 -9.70703,4.32908 -9.70703,9.70703 l 0,14.38868 c 0,5.37795 4.14184,9.71564 9.52343,9.73632 l 0.0469,15.49805 15.40234,-15.50195 14.25,-0.0254 c 5.37795,0 9.70703,-4.32908 9.70703,-9.70703 l 0,-14.38868 c 0,-5.37795 -4.32908,-9.70703 -9.70703,-9.70703 l -29.51562,0 z m 11.38086,11.00586 3.88281,0.01 4.12891,13.0664 -2.91407,-0.004 -1.1582,-3.24805 -3.9668,0 -1.14843,3.26758 -2.92579,-0.004 4.10157,-13.08789 z m -14.02539,0.0117 2.5957,0.008 6.51172,0.008 0,2.52539 -6.51172,-0.002 0.0508,2.58399 5.33984,0.006 0,2.52539 -5.27148,0 -0.1543,-0.004 -0.0352,5.38672 -2.52539,0 0,-13.03711 z m 29.46484,0.0137 c 3.46153,0 6.26758,2.92415 6.26758,6.53125 0,1.44011 -0.44846,2.77119 -1.19141,3.89063 l 1.03906,1.05859 -1.05664,1.66992 -1.33593,-1.35547 c -1.03903,0.79246 -2.32749,1.26758 -3.72266,1.26758 -3.46153,0 -6.26758,-2.92415 -6.26758,-6.53125 0,-3.6071 2.80605,-6.53125 6.26758,-6.53125 z m 0.043,2.40625 c -2.01048,0 -3.64063,1.85727 -3.64063,4.14844 0,2.29117 1.63015,4.14844 3.64063,4.14844 0.71778,0 1.38752,-0.23728 1.94922,-0.64063 l -1.16602,-1.16211 1.05469,-1.67187 1.34766,1.33984 c 0.3545,-0.53822 0.45507,-1.27871 0.45507,-2.01367 0,-2.29117 -1.63014,-4.14844 -3.64062,-4.14844 z m -13.73828,1.28321 -1.18946,4.04296 2.38282,-0.002 -1.19336,-4.04101 z"
       style="fill:#ffffff;fill-opacity:1;fill-rule:evenodd;stroke:none;stroke-width:0.1;stroke-linecap:butt;stroke-linejoin:miter;stroke-miterlimit:4;stroke-dasharray:none;stroke-opacity:1" />
    <path
       id="pathBubble2"
       d="m 102.59973,978.35055 c 0,0.95951 -0.33989,1.95752 -0.85887,2.89903 -0.529,0.95967 -1.24407,1.86062 -1.97492,2.60225 -0.77646,0.78791 -1.7204,1.56926 -2.73017,2.15356 -1.00941,0.58409 -2.08461,0.97288 -3.12407,0.97128 l -16.57539,-0.0255 -7.42408,7.30672 12.48781,0 14.09984,14.09981 0,-15.72481 c 0,0 3.66538,-0.0287 5.41232,-0.0363 1.57314,-0.007 3.05241,-1.17211 4.09032,-2.35431 0.96131,-1.09493 1.66844,-2.58173 1.67188,-4.03877 0.0144,-6.11276 0.003,-18.0311 3.3e-4,-20.05862 l -0.0363,-0.29047 -0.15803,-0.2184 -4.86006,-5.31837 z"
       style="fill:#ffffff;fill-opacity:1;fill-rule:evenodd;stroke:none;stroke-width:0.1;stroke-linecap:butt;stroke-linejoin:miter;stroke-miterlimit:4;stroke-dasharray:none;stroke-opacity:1" />
  </g>
</svg>