<?xml version="1.0" encoding="UTF-8" standalone="no"?>
<svg
   xmlns:dc="http://purl.org/dc/elements/1.1/"
   xmlns:cc="http://creativecommons.org/ns#"
   xmlns:rdf="http://www.w3.org/1999/02/22-rdf-syntax-ns#"
   xmlns:svg="http://www.w3.org/2000/svg"
   xmlns="http://www.w3.org/2000/svg"
   xmlns:sodipodi="http://sodipodi.sourceforge.net/DTD/sodipodi-0.dtd"
   xmlns:inkscape="http://www.inkscape.org/namespaces/inkscape"
   viewBox="0 0 185.93554 178.88843"
   xml:space="preserve"
   height="66.749413"
   width="69.297585"
   version="1.1"
   id="svg2"
   inkscape:version="0.91 r13725"
   sodipodi:docname="jquery_logo_web_1.svg"><sodipodi:namedview
     pagecolor="#ffffff"
     bordercolor="#666666"
     borderopacity="1"
     objecttolerance="10"
     gridtolerance="10"
     guidetolerance="10"
     inkscape:pageopacity="0"
     inkscape:pageshadow="2"
     inkscape:window-width="1920"
     inkscape:window-height="1017"
     id="namedview10"
     showgrid="false"
     fit-margin-top="0"
     fit-margin-left="0"
     fit-margin-right="0"
     fit-margin-bottom="0"
     inkscape:zoom="2.0212131"
     inkscape:cx="32.207741"
     inkscape:cy="18.146472"
     inkscape:window-x="-8"
     inkscape:window-y="-8"
     inkscape:window-maximized="1"
     inkscape:current-layer="svg2" /><defs
     id="defs6" /><path
     inkscape:connector-curvature="0"
     style="fill:#0868ab;fill-opacity:1;fill-rule:nonzero;stroke:none"
     d="m 111.12305,-0.31461542 -5.25,7.21875002 c -7.0173,10.3275004 -7.68105,23.1549804 -2.8125,34.5625004 5.1315,12.105 15.62845,21.625 27.90624,26.125 0.50625,0.1905 1.0214,0.36173 1.53125,0.53125 l 0.6875,0.21875 c 0.7284,0.2265 1.4387,0.4825 2.1875,0.625 33.9372,6.555 43.14575,-17.4035 45.59375,-20.9375 -8.0655,11.6115 -21.6222,14.38175 -38.25,10.34375 -1.3071,-0.315 -2.7415,-0.77325 -4,-1.21875 -1.63065,-0.5835 -3.2274,-1.25 -4.78125,-2 -2.95425,-1.416 -5.76454,-3.154 -8.37499,-5.125 -14.87625,-11.2875 -24.14175,-32.80575 -14.4375,-50.34375042 z m -38.5,8.40625002 -9.71875,13.7187504 c -11.90565,17.13 -11.25165,40.06898 -1.96875,58.1875 1.55805,3.039 3.2994,5.97325 5.25,8.78125 1.7847,2.5545 3.79255,5.60575 6.15625,7.65625 0.8619,0.9465 1.74575,1.87075 2.65625,2.78125 l 0.71875,0.6875 c 0.8859,0.862495 1.7835,1.706245 2.71875,2.531245 l 0.0937,0.0937 0.0312,0.0312 c 1.03185,0.903 2.103,1.767 3.1875,2.625 l 0.71875,0.5625 c 1.0887,0.834 2.20705,1.6575 3.34375,2.4375 l 0.0937,0.0937 c 0.498,0.348 1.0256,0.6685 1.53125,1 l 0.71875,0.46875 c 0.8133,0.522 1.63505,1.0155 2.46875,1.5 l 0.34375,0.21875 c 0.72075,0.4125 1.451,0.82275 2.1875,1.21875 l 0.78125,0.40625 c 0.50985,0.2625 1.01735,0.52625 1.53125,0.78125 l 0.21875,0.125 c 1.0476,0.5175 2.11125,0.99625 3.1875,1.46875 l 0.71875,0.28125 c 0.86595,0.3645 1.7155,0.731 2.59375,1.0625 0.37215,0.141 0.7482,0.27275 1.125,0.40625 0.79275,0.2955 1.6012,0.57225 2.40625,0.84375 0.3645,0.117 0.73405,0.22975 1.09375,0.34375 1.14555,0.3555 2.2794,0.802 3.46875,1 61.46369,10.18215 75.65639,-37.124845 75.65639,-37.124845 -12.792,18.425995 -37.56955,27.207745 -63.99999,20.343745 -1.17765,-0.3075 -2.351,-0.6355 -3.5,-1 l -1.03125,-0.34375 c -0.81735,-0.2655 -1.6284,-0.55275 -2.4375,-0.84375 -0.36855,-0.138 -0.72925,-0.26525 -1.09375,-0.40625 -0.88185,-0.335995 -1.7631,-0.694995 -2.625,-1.062495 l -0.71875,-0.28125 c -1.0764,-0.477 -2.13525,-0.978 -3.1875,-1.5 -0.54195,-0.2625 -1.0907,-0.541 -1.625,-0.8125 l -0.90625,-0.46875 c -0.6885,-0.3735 -1.39095,-0.76325 -2.0625,-1.15625 l -0.46875,-0.28125 c -0.83385,-0.4905 -1.65905,-0.981 -2.46875,-1.5 l -0.75,-0.5 c -0.53445,-0.348 -1.0716,-0.7055 -1.59375,-1.0625 -1.1367,-0.7815 -2.228,-1.611 -3.3125,-2.4375 l -0.75,-0.5625 c -11.574,-9.1305 -20.75865,-21.62575 -25.125,-35.78125 -4.56915,-14.682 -3.5764,-31.15575 4.34375,-44.5312504 z M 24.6543,25.435385 11.81054,41.747885 c -16.4625003,23.658 -14.4173403,54.44925 -1.8437503,79.593745 0.2994003,0.5985 0.6258003,1.19025 0.9375003,1.78125 0.19815,0.381 0.3603,0.7575 0.5625,1.125 l 0.375,0.65625 c 0.21435,0.4005 0.4377,0.76775 0.65625,1.15625 0.3966,0.6915 0.80985,1.3785 1.21875,2.0625 0.2268,0.3765 0.42585,0.7485 0.65625,1.125 0.4575,0.732 0.93285,1.463 1.40625,2.1875 l 0.59375,0.90625 c 0.6597,0.97948 1.34335,1.94325 2.03125,2.90625 l 0.0312,0.0937 0.34375,0.46875 c 0.59895,0.8265 1.22081,1.6335 1.84376,2.4375 l 0.6875,0.875 c 0.5583,0.7005 1.14395,1.39775 1.71875,2.09375 l 0.625,0.78125 c 0.777,0.9105 1.56995,1.801 2.375,2.6875 l 0.0625,0.0625 0.0937,0.0937 c 0.7851,0.858 1.59295,1.69275 2.40625,2.53125 l 0.75,0.78125 c 0.63525,0.6345 1.28995,1.2525 1.9375,1.875 l 0.7813,0.7501 c 0.8667,0.813 1.73025,1.62625 2.625,2.40625 l 0.0625,0.0312 0.4375,0.40625 c 0.78525,0.6795 1.597,1.337 2.40625,2 l 0.96875,0.78125 c 0.65565,0.5265 1.3244,1.0525 2,1.5625 l 1.0625,0.81255 c 0.7407,0.546 1.49715,1.103 2.25,1.625 l 0.8125,0.5625 0.21875,0.15625 c 0.71655,0.489 1.45925,0.9635 2.1875,1.4375 l 0.9375,0.625 c 1.1208,0.708 2.25665,1.41725 3.40625,2.09375 l 0.9375,0.53125 c 0.846,0.486 1.67355,0.9725 2.53125,1.4375 0.4653,0.252 0.96815,0.47575 1.4375,0.71875 0.60705,0.3195 1.19375,0.6255 1.8125,0.9375 l 0.4375,0.21875 0.71875,0.34375 c 0.95865,0.4575 1.93065,0.91025 2.90625,1.34375 l 0.625,0.28125 c 1.1127,0.4905 2.2377,0.95775 3.375,1.40625 l 0.8125,0.3125 c 1.05585,0.405 2.11935,0.814 3.1875,1.1875 l 0.40625,0.15625 c 1.1778,0.408 2.36835,0.78425 3.5625,1.15625 l 0.84375,0.25 c 1.2141,0.369 2.40525,0.80025 3.65625,1.03125 79.60949,14.52 102.74999,-47.84375 102.74999,-47.84375 -19.416,25.305 -53.89594,31.9935 -86.56249,24.5625 -1.2381,-0.279 -2.4498,-0.67875 -3.65625,-1.03125 l -0.90625,-0.2811 c -1.1778,-0.36 -2.3381,-0.723 -3.5,-1.125 l -0.46875,-0.1875 c -1.03995,-0.363 -2.0742,-0.75875 -3.09375,-1.15625 l -0.875,-0.34375 c -1.125,-0.4455 -2.24275,-0.8935 -3.34375,-1.375 l -0.6875,-0.28125 c -0.94695,-0.429 -1.8738,-0.864 -2.8125,-1.3125 l -0.8125,-0.40625 c -0.73245,-0.3525 -1.4355,-0.71725 -2.15625,-1.09375 -0.48915,-0.2505 -0.9871,-0.51875 -1.46875,-0.78125 -0.88245,-0.4785 -1.75905,-0.96625 -2.625,-1.46875 l -0.875,-0.46875 c -1.15365,-0.675 -2.28545,-1.38425 -3.40625,-2.09375 l -0.90625,-0.625 c -0.8133,-0.5265 -1.6359,-1.04625 -2.4375,-1.59375 l -0.75,-0.5625 c -0.78105,-0.546 -1.5595,-1.09375 -2.3125,-1.65625 l -1,-0.75 c -0.6921,-0.5295 -1.37865,-1.076 -2.0625,-1.625 l -0.9375,-0.75 c -0.87015,-0.7125 -1.7129,-1.41975 -2.5625,-2.15625 l -0.28125,-0.21875 c -0.9147,-0.8055 -1.82865,-1.64375 -2.71875,-2.46875 l -0.75,-0.75 c -0.65565,-0.627 -1.29835,-1.25825 -1.9375,-1.90625 l -0.78125,-0.75 c -0.8097,-0.831 -1.59815,-1.67775 -2.375,-2.53125 l -0.125,-0.125 c -0.8214,-0.9015 -1.61695,-1.82 -2.40625,-2.75 l -0.625,-0.75 c -0.5913,-0.708 -1.17925,-1.43475 -1.75,-2.15625 l -0.625,-0.78125 c -0.6885,-0.8865 -1.38385,-1.789 -2.03125,-2.6875 C 16.67624,87.575535 10.15869,53.451035 24.65425,25.435535 Z"
     id="signet" /><metadata
     id="metadata3471"><rdf:RDF><cc:Work
         rdf:about=""><dc:title></dc:title><dc:format>image/svg+xml</dc:format><dc:type
           rdf:resource="http://purl.org/dc/dcmitype/StillImage" /></cc:Work></rdf:RDF></metadata></svg>