<?xml version="1.0" encoding="UTF-8" standalone="no"?>
<svg
   xmlns:dc="http://purl.org/dc/elements/1.1/"
   xmlns:cc="http://creativecommons.org/ns#"
   xmlns:rdf="http://www.w3.org/1999/02/22-rdf-syntax-ns#"
   xmlns:svg="http://www.w3.org/2000/svg"
   xmlns="http://www.w3.org/2000/svg"
   viewBox="0 0 214.15085 200"
   id="svg2"
   version="1.1"
   width="214.15085"
   height="200">
  <metadata
     id="metadata12">
    <rdf:RDF>
      <cc:Work
         rdf:about="">
        <dc:format>image/svg+xml</dc:format>
        <dc:type
           rdf:resource="http://purl.org/dc/dcmitype/StillImage" />
        <dc:title></dc:title>
      </cc:Work>
    </rdf:RDF>
  </metadata>
  <defs
     id="defs10" />
  <rect
     style="fill:#f7df1e"
     y="0"
     x="14.150847"
     width="200"
     height="200"
     id="rect4" />
  <path
     id="path4253"
     d="m 37.586202,13.37015 0,14.27344 c 0,2.42567 -1.21281,3.17188 -2.79883,3.17188 -1.58601,0 -2.33372,-0.83841 -3.08008,-2.14454 l -2.42578,1.58594 c 1.02625,1.8659 2.70642,3.35787 5.78516,3.45117 3.35862,0 5.6914,-1.86526 5.6914,-5.87695 l 0,-14.46094 -3.17187,0 z m 12.12695,7.46289 c -2.61226,0 -4.10462,0.84036 -5.13086,2.14649 l 1.67969,1.67969 c 0.74636,-0.74636 1.67961,-1.49414 3.26563,-1.49415 1.67931,0 2.51862,0.84114 2.33203,2.70704 l -3.45117,0 c -2.79884,0 -4.85157,1.2115 -4.85157,3.73046 0,2.89215 2.0509,4.01172 4.47657,4.01172 1.95919,0 3.07876,-0.7466 4.01171,-2.05273 l -0.09179,1.77344 2.98437,0 0,-7.1836 c 0,-3.7318 -2.23917,-5.31836 -5.22461,-5.31836 z m 27.05664,0 c -2.61225,0 -4.10656,0.84036 -5.13281,2.14649 l 1.67969,1.67969 c 0.74636,-0.74636 1.67961,-1.49414 3.26562,-1.49415 1.67931,0 2.51908,0.84114 2.42578,2.70704 l -3.45117,0 c -2.79884,0 -4.85156,1.2115 -4.85156,3.73046 0,2.89215 2.05285,4.01172 4.47852,4.01172 1.95919,0 3.07831,-0.7466 3.91796,-2.05273 l -0.09375,1.77344 2.98633,0 0,-7.1836 c 0,-3.7318 -2.23916,-5.31836 -5.22461,-5.31836 z m -19.96484,0.1875 6.25,12.59375 0.37305,0 6.25,-12.59375 -3.07813,0 -2.42578,5.41016 c -0.37318,1.11954 -0.74609,2.70508 -0.74609,2.70508 0,0 -0.37337,-1.67884 -0.83985,-2.70508 l -2.42578,-5.41016 -3.35742,0 z m -8.02344,6.9961 3.17188,0 0,1.02734 c 0,1.30613 -1.30702,2.14453 -2.98633,2.14453 -1.49272,0 -2.33203,-0.46639 -2.33203,-1.58594 0,-1.11954 0.84035,-1.58593 2.14648,-1.58593 z m 27.05469,0 3.17187,0 0,1.02734 c 0,1.30613 -1.30507,2.14453 -2.98437,2.14453 -1.49272,0 -2.33399,-0.46639 -2.33399,-1.58594 1e-5,-1.11954 0.84036,-1.58593 2.14649,-1.58593 z"
     style="fill:#3f4a43;fill-opacity:1" />
  <g
     transform="translate(-221.95091,-167.78805)"
     id="g4271" />
  <path
     d="m 150.00571,29.22995 0,-5.691 -1.8659,0 0,-2.51896 1.8659,0 0,-6.43735 2.98543,0 0,6.43735 3.35862,0 0,2.42567 -3.35862,0 0,5.69099 c 0,1.39943 0.46648,1.77261 1.21284,1.77261 0.74636,0 1.11954,-0.37318 1.49272,-0.55977 l 1.39942,1.95919 c -0.65306,0.55977 -1.58601,1.11954 -3.17203,1.11954 -2.14578,0.18659 -3.91838,-0.93295 -3.91838,-4.19827 z m -9.42342,-8.39691 c -2.14579,0 -3.6384,1.02682 -4.38476,2.51953 l 0.0937,-2.33203 -3.07813,0 -0.0937,0 0,18.65821 3.07813,0 0,-8.39649 c 0.74636,1.30612 2.24048,2.33203 4.29297,2.33203 3.26532,0 5.7832,-2.799 5.7832,-6.4375 0,-3.63851 -2.51939,-6.34375 -5.69141,-6.34375 z m -0.93164,2.51953 c 2.23908,0 3.54492,1.67843 3.54492,3.82422 0,2.33237 -1.30584,3.82663 -3.54492,3.91993 -2.23908,0 -3.63867,-1.58756 -3.63867,-3.91993 0,-2.33238 1.39959,-3.82422 3.63867,-3.82422 z m -13.24857,-2.33258 3.07874,0 0,12.31494 -3.07874,0 0,-12.31494 z m -0.46647,-4.75804 c 0,-1.11954 0.93295,-1.8659 1.8659,-1.8659 1.02624,0 1.95919,0.74636 1.95919,1.8659 0,1.11954 -0.93295,1.8659 -1.95919,1.8659 -1.02625,0 -1.8659,-0.74636 -1.8659,-1.8659 z m -10.63563,4.75804 2.98544,0 0,2.23908 c 0.83966,-1.8659 2.14579,-2.51896 3.6385,-2.51896 0.83966,0 1.49273,0.18658 1.9592,0.46647 l -1.02625,2.70555 c -0.46647,-0.18659 -0.93295,-0.46647 -1.58601,-0.46647 -1.7726,0 -2.98544,1.02624 -2.98544,3.82509 l 0,6.15747 -2.98544,0 0,-12.40823 z m -14.46071,6.15747 c 0,-3.7318 2.79884,-6.43735 6.62394,-6.43735 2.23908,0 3.82509,0.83965 5.03793,2.33237 l -2.14579,1.67931 c -0.55977,-0.83966 -1.58601,-1.39943 -2.89214,-1.39943 -2.14578,0 -3.54521,1.58602 -3.54521,3.8251 0,2.23908 1.30613,3.82509 3.54521,3.82509 1.49272,0 2.33237,-0.65306 3.07873,-1.30613 l 1.8659,1.7726 c -1.21283,1.30614 -2.70555,2.14579 -5.13122,2.14579 -3.63851,0 -6.43735,-2.61226 -6.43735,-6.43735 z m -16.419918,2.33237 2.51897,-1.39942 c 0.93295,1.58601 2.14578,2.79885 4.57145,2.79885 1.9592,0 3.45191,-1.02625 3.45191,-2.79885 0,-1.77261 -1.11954,-2.42567 -3.45191,-3.45192 l -1.30613,-0.55977 c -2.98544,-1.30613 -4.66475,-2.79885 -4.66475,-5.87758 0,-2.98544 2.23908,-5.13122 5.5977,-5.13122 2.70555,0 4.47816,1.02624 5.69099,3.17203 l -2.42567,1.49272 c -0.74635,-1.30613 -1.58601,-1.8659 -3.26532,-1.8659 -1.58602,0 -2.51896,1.02624 -2.51896,2.23908 0,1.49272 0.83965,2.14578 2.89214,3.17202 l 1.30613,0.55977 c 3.45191,1.49272 5.22452,3.17203 5.22452,6.34406 0,3.54521 -2.79885,5.5044 -6.53065,5.5044 -3.7318,0 -5.97088,-1.95919 -7.09042,-4.19827 z"
     style="fill:#3f4a43;fill-opacity:1"
     id="path8" />
  <path
     style="fill:#3f4a43;fill-opacity:1"
     id="path4154"
     d="m 142.56786,150.31858 c 4.02857,6.57778 9.26984,11.4127 18.53968,11.4127 7.7873,0 12.7619,-3.89206 12.7619,-9.26984 0,-6.44444 -5.11111,-8.72698 -13.68253,-12.47619 l -4.69842,-2.01587 c -13.5619,-5.77778 -22.57143,-13.01587 -22.57143,-28.31746 0,-14.095234 10.73969,-24.825393 27.52381,-24.825393 11.94921,0 20.53969,4.15873 26.73016,15.047612 l -14.63492,9.396831 c -3.22222,-5.77778 -6.69841,-8.05397 -12.09524,-8.05397 -5.50476,0 -8.99365,3.49206 -8.99365,8.05397 0,5.63809 3.49207,7.92063 11.55556,11.41269 l 4.69841,2.0127 c 15.96826,6.84762 24.98413,13.82857 24.98413,29.52381 0,16.92064 -13.29207,26.19048 -31.14286,26.19048 -17.45397,0 -28.73016,-8.31746 -34.24762,-19.21905 z" />
  <path
     style="fill:#3f4a43;fill-opacity:1"
     id="path6"
     d="m 76.177378,151.94716 c 2.95238,5.23809 5.63809,9.66666 12.09524,9.66666 6.1746,0 10.06984,-2.41587 10.06984,-11.80952 l 0,-63.904756 18.793652,0 0,64.158726 c 0,19.46032 -11.40953,28.31746 -28.063492,28.31746 -15.04762,0 -23.76191,-7.7873 -28.19366,-17.16667 z" />
  <circle
     id="circle6"
     r="14.786441"
     cy="161.06578"
     cx="14.786441"
     style="fill:#3f4a43" />
</svg>
