<?xml version="1.0" encoding="UTF-8" standalone="no"?>
<svg
   xmlns:dc="http://purl.org/dc/elements/1.1/"
   xmlns:cc="http://creativecommons.org/ns#"
   xmlns:rdf="http://www.w3.org/1999/02/22-rdf-syntax-ns#"
   xmlns:svg="http://www.w3.org/2000/svg"
   xmlns="http://www.w3.org/2000/svg"
   version="1.1"
   viewBox="0 0 43.994663 44.166729"
   height="100"
   width="100"
   id="ncompassTile">
  <metadata
     id="metadata8">
    <rdf:RDF>
      <cc:Work
         rdf:about="">
        <dc:format>image/svg+xml</dc:format>
        <dc:type
           rdf:resource="http://purl.org/dc/dcmitype/StillImage" />
        <dc:title></dc:title>
      </cc:Work>
    </rdf:RDF>
  </metadata>
  <defs
     id="defs6" />
  <g
     style="display:inline;opacity:1"
     id="layer1">
    <g
       style="display:inline;fill:#ff8c00;fill-opacity:1;stroke:none"
       id="layer3"
       transform="translate(-48.696507,-48.248498)">
      <path
         id="path4323"
         d="M 69.181243,92.333463 C 59.255454,91.661206 51.033126,84.389241 49.075744,74.551822 48.776139,73.046065 48.72858,72.465956 48.727771,70.307313 c -8.36e-4,-2.232987 0.03524,-2.633102 0.402968,-4.46875 0.984335,-4.913716 3.744752,-9.453448 7.708864,-12.677861 3.29549,-2.680554 7.297442,-4.337165 11.572669,-4.790515 1.128917,-0.119712 3.426587,-0.120476 4.54754,-0.0015 4.14422,0.439814 7.947281,1.977535 11.29621,4.567486 0.932139,0.720886 2.99947,2.789174 3.713181,3.714902 2.636223,3.419342 4.108299,7.040312 4.611713,11.34375 0.105098,0.898438 0.10454,3.794936 -9e-4,4.65625 -0.214735,1.754159 -0.512047,3.117556 -1.008562,4.625 -1.75756,5.336055 -5.57005,9.865518 -10.534182,12.515235 -3.637136,1.941402 -7.739291,2.820985 -11.856029,2.542165 z m -0.494475,-4.229275 c 0.148473,-0.149118 0.181126,-0.25361 0.246618,-0.789193 0.09471,-0.774503 0.291413,-1.567466 0.468128,-1.887117 0.206679,-0.37385 0.62285,-0.558065 1.260758,-0.558065 0.729389,0 1.029852,0.159603 1.274709,0.677115 0.169292,0.357804 0.400921,1.19435 0.571178,2.062852 0.124182,0.633461 0.305431,0.698712 1.411551,0.508163 6.215899,-1.070797 11.400174,-5.282217 13.680006,-11.112882 0.516038,-1.319763 0.990717,-3.214411 1.073152,-4.283404 0.0522,-0.676913 0.0073,-0.708693 -1.143999,-0.808909 -0.948495,-0.08257 -1.494263,-0.19214 -1.964433,-0.394402 -0.262376,-0.112871 -0.330363,-0.180938 -0.474028,-0.474577 -0.135166,-0.276269 -0.167719,-0.43104 -0.167719,-0.797401 0,-0.635839 0.182994,-1.000233 0.61989,-1.234376 0.351712,-0.188492 1.197354,-0.430684 2.053004,-0.587982 0.623759,-0.114669 0.848123,-0.264735 0.847688,-0.566982 -4.38e-4,-0.301806 -0.184046,-1.331558 -0.379824,-2.130178 -1.317916,-5.376042 -5.300956,-9.918183 -10.495933,-11.969253 -1.302955,-0.51443 -2.772109,-0.894412 -4.154292,-1.074466 -1.090304,-0.142031 -1.163721,-0.09385 -1.284326,0.842932 -0.277423,2.154821 -0.658555,2.678668 -1.902328,2.614657 -0.614252,-0.03161 -0.891057,-0.186468 -1.109062,-0.620453 -0.164757,-0.32798 -0.49757,-1.583173 -0.585722,-2.20902 -0.05335,-0.378808 -0.247699,-0.597684 -0.530693,-0.597684 -0.108963,0 -0.539147,0.06925 -0.955967,0.15388 -7.174118,1.456694 -12.647375,7.126562 -13.857405,14.355195 -0.193781,1.157631 -0.15994,1.199532 1.099553,1.361402 0.707112,0.09088 1.427622,0.281183 1.750685,0.4624 0.152682,0.08564 0.309454,0.247685 0.405387,0.419011 0.134904,0.240921 0.156303,0.356762 0.155518,0.841862 -0.0012,0.754918 -0.138605,1.013072 -0.664804,1.249217 -0.416457,0.186894 -1.290088,0.419325 -2.009272,0.53457 -0.644021,0.1032 -0.793764,0.220311 -0.793764,0.620788 0,0.753422 0.484262,2.89904 0.915653,4.056982 1.632958,4.383191 4.739333,7.810552 8.928097,9.850651 1.474296,0.718042 2.935774,1.207089 4.487354,1.501579 0.986276,0.187195 1.021909,0.186703 1.224642,-0.01691 z"
         style="opacity:1;fill:#ff8c00;fill-opacity:1;stroke:none;stroke-width:0.0625;stroke-linecap:round;stroke-linejoin:round;stroke-miterlimit:4;stroke-dasharray:none;stroke-opacity:1" />
    </g>
    <path
       transform="matrix(0.88333458,0,0,0.88333458,-0.08603232,0)"
       id="path4165"
       d="m 35.458984,14.474609 c -0.0562,0.0055 -0.110406,0.02073 -0.158203,0.04492 -4.578396,2.31776 -11.066406,5.871094 -11.066406,5.871094 0,0 -1.005899,0.211307 -1.738281,0.824219 -0.650094,0.544043 -1.108556,1.079203 -1.347656,1.615234 -0.391237,0.877097 -0.425782,1.324219 -0.425782,1.324219 0,0 -3.714244,6.122301 -5.947265,10.214844 -0.107774,0.197513 -0.05279,0.504163 0.103515,0.666015 0.153802,0.159265 0.455065,0.225504 0.652344,0.125 3.516489,-1.791458 10.425781,-5.871093 10.425781,-5.871094 0,0 1.010675,-0.159977 1.785157,-0.71875 0.687458,-0.495986 1.182031,-0.996181 1.458984,-1.513671 0.453171,-0.846759 0.519531,-1.326172 0.519531,-1.326172 0,0 4.17635,-6.70604 6.353516,-10.46875 0.107581,-0.185931 0.01449,-0.4803 -0.140625,-0.628907 -0.116053,-0.111184 -0.306012,-0.174698 -0.47461,-0.158203 z m -10.300781,8.166016 a 2.2086514,2.2086514 0 0 1 2.208985,2.208984 2.2086514,2.2086514 0 0 1 -2.208985,2.208985 2.2086514,2.2086514 0 0 1 -2.207031,-2.208985 2.2086514,2.2086514 0 0 1 2.207031,-2.208984 z"
       style="display:inline;fill:#eba360;fill-rule:evenodd;stroke:none;stroke-width:0.1;stroke-linecap:butt;stroke-linejoin:miter;stroke-miterlimit:4;stroke-dasharray:none;stroke-opacity:1;fill-opacity:1" />
  </g>
</svg>
