<?xml version="1.0" encoding="UTF-8" standalone="no"?>
<svg
   xmlns:dc="http://purl.org/dc/elements/1.1/"
   xmlns:cc="http://creativecommons.org/ns#"
   xmlns:rdf="http://www.w3.org/1999/02/22-rdf-syntax-ns#"
   xmlns:svg="http://www.w3.org/2000/svg"
   xmlns="http://www.w3.org/2000/svg"
   xmlns:xlink="http://www.w3.org/1999/xlink"
   xmlns:sodipodi="http://sodipodi.sourceforge.net/DTD/sodipodi-0.dtd"
   xmlns:inkscape="http://www.inkscape.org/namespaces/inkscape"
   version="1.1"
   id="svg3614"
   height="136.49846"
   width="124.71697"
   inkscape:version="0.91 r13725"
   sodipodi:docname="sql_logo_web_1.svg">
  <sodipodi:namedview
     pagecolor="#ffffff"
     bordercolor="#666666"
     borderopacity="1"
     objecttolerance="10"
     gridtolerance="10"
     guidetolerance="10"
     inkscape:pageopacity="0"
     inkscape:pageshadow="2"
     inkscape:window-width="1920"
     inkscape:window-height="1017"
     id="namedview40"
     showgrid="false"
     inkscape:zoom="2.36"
     inkscape:cx="-23.939635"
     inkscape:cy="2.7646306"
     inkscape:window-x="1912"
     inkscape:window-y="-8"
     inkscape:window-maximized="1"
     inkscape:current-layer="svg3614"
     inkscape:showpageshadow="false"
     fit-margin-top="0"
     fit-margin-left="0"
     fit-margin-right="0"
     fit-margin-bottom="0" />
  <defs
     id="defs3616">
    <linearGradient
       xlink:href="#linearGradient3649-2"
       id="linearGradient2851"
       gradientUnits="userSpaceOnUse"
       x1="-411.5267"
       y1="-29.889751"
       x2="-23.846952"
       y2="-258.96371"
       gradientTransform="matrix(0.1383871,0,0,0.1383871,82.706951,135.94996)" />
    <linearGradient
       id="linearGradient3649-2">
      <stop
         style="stop-color:#909ca9;stop-opacity:1;"
         offset="0"
         id="stop3651-1" />
      <stop
         style="stop-color:#ededee;stop-opacity:1;"
         offset="1"
         id="stop3653-6" />
    </linearGradient>
    <linearGradient
       xlink:href="#linearGradient3672-8"
       id="linearGradient2848"
       gradientUnits="userSpaceOnUse"
       x1="-447.79681"
       y1="-889.05798"
       x2="-135.85931"
       y2="-889.05798"
       gradientTransform="matrix(0.1383871,0,0,0.1383871,82.706951,135.94996)" />
    <linearGradient
       id="linearGradient3672-8">
      <stop
         style="stop-color:#939fab;stop-opacity:1;"
         offset="0"
         id="stop3674-5" />
      <stop
         style="stop-color:#dcdee1;stop-opacity:1;"
         offset="1"
         id="stop3676-7" />
    </linearGradient>
    <radialGradient
       xlink:href="#linearGradient3629-6"
       id="radialGradient2845"
       gradientUnits="userSpaceOnUse"
       gradientTransform="matrix(-0.13296448,-0.02010669,0.04015714,-0.26555712,-96.100456,-40.961347)"
       cx="-1259.0977"
       cy="-245.42754"
       fx="-1259.0977"
       fy="-245.42754"
       r="414.15625" />
    <linearGradient
       id="linearGradient3629-6">
      <stop
         style="stop-color:#ee352c;stop-opacity:1;"
         offset="0"
         id="stop3631-1" />
      <stop
         style="stop-color:#a91d22;stop-opacity:1;"
         offset="1"
         id="stop3633-8" />
    </linearGradient>
  </defs>
  <metadata
     id="metadata3619">
    <rdf:RDF>
      <cc:Work
         rdf:about="">
        <dc:format>image/svg+xml</dc:format>
        <dc:type
           rdf:resource="http://purl.org/dc/dcmitype/StillImage" />
        <dc:title></dc:title>
      </cc:Work>
    </rdf:RDF>
  </metadata>
  <path
     inkscape:connector-curvature="0"
     style="fill:url(#linearGradient2851);fill-opacity:1"
     d="m 78.736541,63.726953 -27.34444,8.917318 -23.7723,10.500121 -6.65988,1.76011 c -1.68842,1.604905 -3.48028,3.234996 -5.38846,4.895445 -2.09756,1.825252 -4.07017,3.479366 -5.570081,4.67489 -1.6702218,1.331274 -4.1536588,3.795397 -5.4230298,5.375473 -1.888499,2.35075 -3.365297,4.85746 -4.00025896,6.78529 -1.142357,3.46837 -0.585778,6.98126 1.61739996,10.22335 2.81435,4.14144 8.4169378,8.34921 14.9328298,11.21368 3.32371,1.46113 8.93244,3.34472 13.13813,4.40676 7.0088,1.76989 20.55461,3.69286 28.01473,3.97863 1.51298,0.0579 3.52713,0.0525 3.61969,-0.009 0.16373,-0.10813 1.3251,-2.30718 2.6726,-5.05978 4.58491,-9.36582 7.90203,-18.14598 9.6871,-25.64486 1.08084,-4.54052 1.92348,-10.595173 2.46935,-17.774085 0.15289,-2.010959 0.20832,-8.717866 0.0908,-10.99745 -0.19119,-3.709477 -0.51794,-6.732932 -1.04222,-9.700071 -0.0769,-0.434887 -0.10521,-0.817317 -0.0649,-0.851946 0.076,-0.06526 0.3343,-0.148121 3.6932,-1.124396 l -0.6703,-1.569827 z m -6.24905,3.667257 c 0.2485,0 0.90932,6.337041 1.08114,10.357409 0.0365,0.854268 0.0291,1.401171 -0.0216,1.401171 -0.16321,0 -3.50187,-1.960501 -5.86849,-3.446705 -2.06675,-1.297891 -5.98877,-3.904187 -6.61231,-4.393791 -0.19675,-0.154491 -0.17596,-0.162034 1.51362,-0.74383 2.87473,-0.989903 9.69041,-3.174254 9.90765,-3.174254 z m -13.92954,4.571098 c 0.17668,-4.13e-4 0.65777,0.265114 1.79472,0.97736 4.26499,2.671812 10.04049,5.886257 12.51538,6.966925 0.76738,0.335071 0.855,0.205234 -0.91248,1.405495 -3.76752,2.558413 -8.45134,5.073953 -14.20198,7.628588 -1.00227,0.445233 -1.8513,0.808699 -1.88552,0.808699 -0.0342,0 0.0776,-0.508393 0.24649,-1.133043 1.39309,-5.153257 2.1792,-10.354756 2.20122,-14.526321 0.0109,-2.063096 0.0115,-2.074026 0.20758,-2.123376 0.009,-0.0023 0.0228,-0.0043 0.0346,-0.0043 z m -2.8672,1.094125 c 0.12344,0.123999 0.0341,4.747138 -0.11675,6.006865 -0.36183,3.022127 -0.95313,5.817185 -1.89851,8.995161 -0.2259,0.759378 -0.43766,1.413977 -0.47137,1.453064 -0.0821,0.0952 -2.90915,-2.659297 -3.84891,-3.749426 -1.60568,-1.862608 -2.87592,-3.712869 -3.80131,-5.535482 -0.47033,-0.926361 -1.22031,-2.755855 -1.15035,-2.806664 0.3176,-0.230635 11.20961,-4.441449 11.2872,-4.363518 z m -13.50571,5.323578 c 0.0254,0.0025 0.0452,0.0094 0.0562,0.02162 0.0408,0.04492 0.18473,0.380715 0.32002,0.748157 0.65848,1.78854 2.13922,4.445562 3.42508,6.145252 1.40385,1.855678 3.23417,3.832915 4.7657,5.14627 0.49176,0.421705 0.95056,0.815302 1.01629,0.873568 0.13114,0.116244 0.17523,0.09654 -3.19588,1.375222 -3.90699,1.481941 -8.16201,2.965921 -13.04731,4.545152 -1.8617,0.601808 -3.43736,1.110338 -3.4986,1.133045 -0.18609,0.069 -0.12902,-0.0456 0.41516,-0.895193 2.42742,-3.78971 6.10466,-11.203037 8.16051,-16.446441 0.35659,-0.909429 0.69595,-1.820256 0.75681,-2.023912 0.0894,-0.29918 0.17752,-0.40094 0.4584,-0.5276 0.15537,-0.07006 0.29131,-0.10276 0.3676,-0.09514 z m -4.13864,1.708216 c 0.055,0.04838 -0.99297,2.261557 -2.02391,4.272702 -1.99963,3.900823 -4.20423,7.739565 -7.13127,12.424567 -0.50503,0.808369 -0.97044,1.547387 -1.03357,1.639021 -0.10396,0.150904 -0.14657,0.101173 -0.46706,-0.536249 -0.70071,-1.393656 -1.28778,-3.152035 -1.59145,-4.787329 -0.30054,-1.618444 -0.24942,-4.420378 0.11244,-6.158225 0.26883,-1.291121 0.25697,-1.262583 0.86492,-1.574154 2.6285,-1.347124 11.18429,-5.35564 11.2699,-5.280333 z m 35.64764,1.44874 0,0.877893 c -0.004,4.610907 -0.4966,10.923566 -1.21089,15.529628 -0.12533,0.80829 -0.23387,1.475143 -0.24217,1.483336 -0.008,0.0082 -0.59089,-0.162576 -1.29305,-0.380564 -3.10265,-0.963203 -6.46641,-2.40216 -9.50115,-4.065121 -2.00967,-1.101263 -4.91636,-2.885197 -4.83488,-2.966673 0.0221,-0.02215 0.87824,-0.475825 1.90282,-1.007632 4.05802,-2.106349 7.93445,-4.377251 11.30448,-6.629607 1.26443,-0.84507 3.15636,-2.212936 3.57645,-2.581785 l 0.29839,-0.259475 z m -51.25512,6.110654 c 0.0842,-0.004 0.0629,0.155836 -0.0692,0.916816 -0.0918,0.529238 -0.19559,1.528966 -0.23352,2.218519 -0.16623,3.022385 0.32391,5.252237 1.82497,8.303224 0.41733,0.848268 0.7438,1.55538 0.72653,1.56983 -0.15029,0.1258 -13.818545,4.1255 -18.1157288,5.30195 -1.273798,0.34874 -2.387107,0.65594 -2.477987,0.68329 -0.149111,0.0449 -0.162396,0.0124 -0.108122,-0.33732 0.470669,-3.03227 2.783739,-7.012114 6.0155068,-10.353082 2.148581,-2.22118 3.868941,-3.536905 6.793951,-5.206815 2.09925,-1.198472 5.35957,-2.997091 5.60036,-3.087763 0.0162,-0.0061 0.0312,-0.0081 0.0432,-0.0087 z m 32.23988,5.773338 c 0.013,-0.01554 0.51936,0.255542 1.12439,0.605442 4.41487,2.553231 10.57556,4.948024 15.82802,6.149579 l 0.47571,0.10811 -0.65301,0.36327 c -2.74377,1.52251 -11.77975,5.28218 -21.0089,8.74433 -1.34727,0.50541 -2.66189,1.00096 -2.9191,1.10277 -0.2572,0.10182 -0.46705,0.17163 -0.46705,0.15137 0,-0.0203 0.38067,-0.75292 0.84762,-1.62605 2.59087,-4.84441 5.17709,-10.731328 6.50419,-14.816069 0.1353,-0.416433 0.25512,-0.767209 0.26813,-0.782752 z m -3.2867,1.076824 c 0.0142,0.01417 -0.14723,0.448138 -0.35895,0.96006 -1.80116,4.355419 -4.16103,9.106857 -7.17016,14.444157 -0.76578,1.35828 -1.41129,2.46724 -1.43577,2.46502 -0.0245,-0.002 -0.64733,-0.37076 -1.38387,-0.82168 -4.38298,-2.68328 -8.26095,-5.98618 -10.80718,-9.19841 l -0.36326,-0.45409 1.88984,-0.51895 c 6.74096,-1.846664 12.45759,-3.821502 18.14169,-6.270664 0.80487,-0.346801 1.47351,-0.619606 1.48766,-0.605443 z m 20.41642,7.126937 c 0.01,0.002 0.013,0.009 0.013,0.0173 0,0.45946 -1.0427,4.71133 -1.91147,7.7886 -0.72874,2.58132 -1.34051,4.60036 -2.47367,8.17781 -0.50046,1.58 -0.93011,2.86957 -0.95574,2.86289 -0.0256,-0.007 -0.14564,-0.0297 -0.26811,-0.0519 -6.1405,-1.11127 -11.64039,-2.66093 -16.79242,-4.73111 -1.44137,-0.57917 -3.52277,-1.50115 -3.63266,-1.60875 -0.0372,-0.0365 1.20744,-0.62281 2.76343,-1.3017 9.40961,-4.10548 19.15898,-8.7808 22.49222,-10.78555 0.4009,-0.24112 0.6977,-0.38155 0.76544,-0.36759 z m -47.12944,1.61307 c 0.0504,0.0478 -2.58164,3.8156 -6.2577,8.96057 -1.27769,1.78821 -2.77861,3.89591 -3.33427,4.68353 -0.55567,0.78763 -1.39622,2.03429 -1.87255,2.77207 l -0.86924,1.34063 -0.92547,-0.77843 c -1.085912,-0.91176 -2.9866718,-2.84759 -3.8488798,-3.92241 -1.774316,-2.21176 -2.976581,-4.5394 -3.451042,-6.67718 -0.21904,-0.98692 -0.225488,-1.48984 -0.01729,-1.55253 0.300894,-0.0906 5.820796,-1.39011 10.9974518,-2.59043 2.87548,-0.66675 6.19988,-1.44721 7.39073,-1.73416 1.19088,-0.28695 2.17662,-0.51267 2.18826,-0.50166 z m 2.64665,1.01196 0.66597,0.74383 c 2.97747,3.31684 6.00556,5.79195 9.70008,7.92698 0.6523,0.37696 1.14946,0.70468 1.1071,0.73086 -0.15378,0.095 -12.77576,4.58281 -18.61307,6.61663 -3.29203,1.14701 -5.99626,2.08227 -6.01119,2.08013 -0.0149,-0.002 -0.20141,-0.12413 -0.41083,-0.27245 l -0.38056,-0.27245 0.59678,-0.86059 c 1.93678,-2.80548 4.37021,-5.89071 9.69576,-12.29915 l 3.64996,-4.39379 z m 16.494,11.78885 c 0.0146,-0.0182 0.93743,0.30895 2.05419,0.72653 2.69187,1.00654 4.80455,1.66302 7.66318,2.37853 3.5111,0.87881 8.58514,1.75762 11.58992,2.01094 0.46129,0.0389 0.69675,0.0915 0.62274,0.13838 -0.13949,0.0883 -3.18193,1.10454 -5.41871,1.80768 -3.55061,1.11614 -14.40151,4.32168 -23.24903,6.86746 -1.64126,0.47225 -3.04456,0.87126 -3.11804,0.88655 -0.19817,0.0412 -0.89087,-0.1406 -0.89087,-0.23353 0,-0.0442 0.49611,-0.67202 1.09845,-1.39252 2.97384,-3.55715 5.92811,-7.5301 8.39405,-11.2872 0.67445,-1.02761 1.23953,-1.8846 1.25412,-1.90282 z m -3.65428,0.10379 c 0.0266,0.0266 -1.43932,2.37391 -4.01754,6.435 -1.08863,1.71472 -2.32305,3.66664 -2.74613,4.33757 -0.42306,0.67093 -1.043,1.69051 -1.37522,2.27041 l -0.60544,1.0552 -0.30704,-0.0822 c -0.74089,-0.20059 -5.96697,-2.04679 -7.3475,-2.59476 -1.71102,-0.67914 -3.49415,-1.4993 -4.80895,-2.20987 -1.64303,-0.88796 -3.72685,-2.2056 -3.56347,-2.25744 0.047,-0.0149 2.87437,-0.78873 6.27931,-1.71686 9.05798,-2.46905 14.0683,-3.88748 17.3546,-4.91275 0.61406,-0.19156 1.12562,-0.33609 1.13738,-0.32434 z m 25.72702,6.03281 c 0.0195,-0.004 0.0285,-0.004 0.0303,0 0.0857,0.21424 -3.26761,9.50196 -4.49327,12.44619 -0.2745,0.65947 -0.37608,0.81925 -0.51895,0.81303 -0.34692,-0.0152 -5.20911,-0.69496 -8.15185,-1.1417 -5.15152,-0.78205 -13.78034,-2.28887 -15.95777,-2.78504 l -0.50598,-0.11244 3.08777,-0.69626 c 6.61834,-1.49116 9.79683,-2.29091 13.02136,-3.27804 4.06671,-1.24496 8.09357,-2.79714 12.16077,-4.68787 0.64301,-0.29891 1.19109,-0.52819 1.32764,-0.55787 z"
     id="path3639" />
  <path
     inkscape:connector-curvature="0"
     style="fill:url(#linearGradient2848);fill-opacity:1"
     d="M 50.555741,7.9590225e-4 C 50.098441,-0.05259367 42.759741,2.5914302 38.044691,4.5070272 c -6.38884,2.59562 -11.34935,5.0826095 -14.40956,7.2307258 -1.13905,0.799557 -2.57137,2.237573 -2.78072,2.789364 -0.0783,0.20649 -0.11509,0.44783 -0.11676,0.696261 l 2.77639,2.620705 6.58636,2.101754 15.68964,2.802339 17.9341,3.083438 0.18163,-1.539557 c -0.0542,-0.0086 -0.1056,-0.0174 -0.16001,-0.02595 l -2.36123,-0.371915 -0.48003,-0.843297 C 58.467051,18.749966 55.773471,13.427734 54.210031,9.8262802 52.999201,7.0370921 51.836481,3.8240311 51.191461,1.497107 50.808371,0.11511862 50.768491,0.02563735 50.555741,7.9590225e-4 Z M 50.209781,1.0646473 c 0.0182,-0.00329 0.0274,-0.00341 0.0303,0 0.0145,0.017335 0.0978,0.5941926 0.18163,1.2800813 0.35298,2.8886097 0.99935,5.6900915 2.01094,8.7054124 0.76227,2.272183 0.7732,2.138728 -0.13406,1.885524 -2.10886,-0.588548 -11.55748,-2.210438 -18.39251,-3.156954 -1.10133,-0.1525115 -2.01798,-0.2881343 -2.03257,-0.3027234 -0.0868,-0.086783 4.92928,-2.7148519 7.15289,-3.7494238 2.85192,-1.3268984 10.61798,-4.5602283 11.18341,-4.6619165 z m -19.91477,9.2503127 0.80005,0.27245 c 4.38822,1.493735 15.38752,3.594832 21.4673,4.099717 0.68589,0.05696 1.26259,0.118066 1.28008,0.134062 0.0175,0.01599 -0.56519,0.327326 -1.29306,0.691937 -2.93293,1.469193 -6.161,3.259938 -8.39404,4.65759 -0.65578,0.410449 -1.25719,0.741493 -1.3363,0.735181 -0.0791,-0.0063 -0.51157,-0.07578 -0.96439,-0.151361 l -0.82599,-0.134061 -2.07581,-2.015262 c -3.6441,-3.526995 -6.48923,-6.255569 -7.58967,-7.286946 l -1.06817,-1.003307 z m -0.81303,0.64869 2.90613,3.628336 c 1.59981,1.995681 3.20316,3.976234 3.55915,4.40244 0.35598,0.426207 0.63138,0.787401 0.61409,0.80005 -0.0825,0.06032 -4.21196,-0.743673 -6.4004,-1.245483 -2.24665,-0.515158 -3.17587,-0.761748 -4.56678,-1.206563 l -1.13304,-0.363266 0.004,-0.2811 c 0.0144,-1.393773 1.77117,-3.449568 4.75274,-5.55278 l 0.2638,-0.181634 z m 24.74967,4.943013 c 0.0872,0.0067 0.17922,0.183905 0.43679,0.748157 0.70486,1.544167 2.89896,5.729241 3.4294,6.538789 0.17469,0.266609 0.45163,0.284455 -2.46069,-0.185956 -6.99911,-1.130525 -9.26337,-1.508958 -9.26329,-1.552532 5e-5,-0.02656 0.2099,-0.164038 0.46705,-0.307045 2.16747,-1.205336 4.35438,-2.722454 6.30094,-4.36352 0.46543,-0.392378 0.91267,-0.766205 0.99466,-0.834646 0.0337,-0.02815 0.0661,-0.04549 0.0951,-0.04325 z"
     id="path3667" />
  <path
     inkscape:connector-curvature="0"
     id="path2851"
     d="m 20.978501,14.247997 c 0,0 -0.45415,0.720028 -0.0259,1.790382 0.26495,0.662322 1.06058,1.457922 1.93742,2.300686 0,0 9.18455,8.959209 10.30984,10.257944 5.08882,5.873232 7.29903,11.655348 7.50318,19.637987 0.131,5.122579 -0.85699,9.62575 -3.25643,14.859314 -4.30064,9.380445 -13.36227,19.724949 -27.3574,31.22792 l 2.05419,-0.678967 c 1.32038,-0.989164 3.11348,-2.045625 7.34317,-4.359195 9.74091,-5.328111 20.67958,-10.229061 34.11673,-15.278792 19.33264,-7.265268 51.133529,-15.789609 69.228149,-18.56117 l 1.88552,-0.289755 -0.28974,-0.454076 c -1.65453,-2.571704 -2.78387,-4.157494 -4.14297,-5.838206 -3.9688,-4.908008 -8.77352,-8.912613 -14.66038,-12.208343 C 97.534271,32.124814 87.041721,28.604951 73.777551,25.967655 71.269971,25.469072 65.778431,24.527694 61.309731,23.831303 51.843811,22.356151 45.738471,21.36 38.994821,20.18566 c -2.41782,-0.419507 -6.02783,-1.025739 -8.42432,-1.543874 -1.24872,-0.269979 -3.62187,-0.831138 -5.46629,-1.466044 -1.52271,-0.599536 -3.66697,-1.179087 -4.12566,-2.927745 z m 5.32358,5.167886 c 0.0129,-0.01163 0.35786,0.09509 0.77843,0.237859 0.77509,0.263115 1.7979,0.571138 2.98829,0.903833 0.83392,0.233073 1.75083,0.477616 2.72449,0.726532 1.24271,0.31771 2.27026,0.590678 2.28339,0.605445 0.13757,0.15469 2.22467,6.815662 2.93641,9.371409 0.27165,0.975475 0.47786,1.78821 0.45841,1.807681 -0.0195,0.01946 -0.251,-0.339699 -0.51031,-0.795726 -2.41455,-4.246215 -6.23835,-8.56432 -10.66013,-12.039678 -0.55116,-0.433193 -0.99898,-0.80097 -0.99898,-0.817355 z m 10.17577,2.810986 c 0.10636,-0.0073 0.56486,0.06942 1.11143,0.190284 3.52113,0.778675 9.80839,1.992497 13.85168,2.6726 0.67364,0.113313 1.22818,0.235342 1.22818,0.272457 0,0.0371 -0.25167,0.196275 -0.55787,0.350286 -0.6784,0.341247 -3.42344,1.984374 -4.34189,2.599089 -2.2928,1.53456 -4.35423,3.177133 -5.85551,4.670564 -0.60331,0.600157 -1.10817,1.0898 -1.12439,1.0898 -0.0162,0 -0.1217,-0.349747 -0.23353,-0.778428 -0.75055,-2.876985 -2.3024,-7.125302 -3.6932,-10.115238 -0.22382,-0.481131 -0.40652,-0.905454 -0.40652,-0.942762 0,-0.0047 0.006,-0.0076 0.0216,-0.0086 z m 17.89951,3.403466 c 0.11784,0.03927 0.34055,0.734295 0.73519,2.296354 0.75566,2.991114 1.10748,6.350252 0.99032,9.457899 -0.0326,0.864823 -0.0873,1.667925 -0.12109,1.786053 l -0.0649,0.21623 -1.06818,-0.345968 c -2.20198,-0.70385 -5.79971,-1.763162 -8.88272,-2.616374 -1.75147,-0.484715 -3.18723,-0.917452 -3.18723,-0.96006 0,-0.128036 2.55568,-2.683077 3.65428,-3.654292 2.09849,-1.855147 7.74414,-6.246558 7.94429,-6.179842 z m 1.42279,0.203249 c 0.0637,-0.0593 8.55358,1.410788 12.41159,2.149331 2.8757,0.550491 7.03621,1.421818 7.28695,1.526576 0.12105,0.05058 -0.30951,0.285217 -1.69092,0.908166 -5.46409,2.464066 -9.51206,4.663258 -13.53599,7.356146 -1.05992,0.709317 -1.94073,1.288731 -1.95903,1.288731 -0.0183,0 -0.0341,-0.592048 -0.0346,-1.314679 -0.003,-3.924062 -0.78619,-7.884757 -2.22284,-11.230984 -0.15462,-0.360111 -0.27065,-0.668868 -0.25516,-0.683287 z m 21.95165,4.341895 c 0.0657,0.06575 -0.21273,1.739901 -0.45407,2.728827 -0.7512,3.077909 -2.74177,7.646247 -5.19817,11.940206 -0.43286,0.756658 -0.82001,1.387538 -0.86492,1.401168 -0.0449,0.0137 -0.60426,-0.280481 -1.24116,-0.653006 -2.402,-1.404933 -5.12175,-2.734017 -8.10862,-3.965661 -0.83286,-0.343436 -1.54221,-0.649244 -1.57848,-0.683288 -0.13622,-0.1278 6.50113,-4.522227 10.0201,-6.633932 2.81458,-1.689014 7.34634,-4.213291 7.42532,-4.134314 z m 1.56984,0.246509 c 0.19114,0 3.95625,1.0265 5.90307,1.60875 4.84934,1.450324 10.44329,3.493846 14.07224,5.141939 l 1.509279,0.683287 -1.063849,0.246508 c -8.87931,2.039854 -16.48982,4.393764 -23.81987,7.369113 -0.60909,0.247228 -1.13911,0.449758 -1.1763,0.449758 -0.0372,0 0.1572,-0.470889 0.42813,-1.046552 2.20337,-4.681539 3.62649,-9.593963 3.99593,-13.765199 0.0336,-0.379678 0.10217,-0.687604 0.15137,-0.687604 z m -37.42506,8.601617 c 0.0601,-0.0594 2.92585,0.612044 4.48893,1.050884 2.34938,0.659593 7.34867,2.332445 7.35181,2.460688 0,0.02495 -0.55096,0.505223 -1.22387,1.068182 -2.70282,2.261245 -5.30995,4.625575 -8.43296,7.641557 -0.92584,0.894104 -1.71257,1.621729 -1.75145,1.621729 -0.0389,0 -0.0562,-0.130525 -0.0346,-0.289754 0.47032,-3.471815 0.36929,-7.929844 -0.28542,-12.467806 -0.083,-0.575233 -0.13328,-1.064903 -0.11244,-1.08548 z m 60.345419,0.05623 c 0.043,0.04298 -1.32957,2.188245 -2.18393,3.4121 -1.246599,1.785733 -3.053519,4.130066 -7.170179,9.306531 -2.16238,2.719071 -4.60143,5.796108 -5.42304,6.837195 -0.82161,1.041086 -1.5111,1.894173 -1.53091,1.894173 -0.0198,0 -0.2848,-0.372829 -0.58814,-0.826004 -2.32064,-3.466806 -5.07434,-6.512096 -8.35944,-9.245988 -0.61306,-0.510178 -1.30469,-1.069678 -1.53524,-1.241153 -0.23054,-0.171474 -0.41851,-0.330123 -0.41948,-0.354617 -0.002,-0.05652 3.50627,-1.561255 6.18417,-2.650985 4.66196,-1.897107 11.03378,-4.168773 15.80207,-5.630625 2.51448,-0.770884 5.185929,-1.538822 5.224119,-1.500627 z m 1.5828,0.415161 c 0.0753,-0.01535 0.57573,0.22683 1.17629,0.570845 5.02194,2.876736 9.94301,6.570981 13.81276,10.370385 1.10075,1.080734 3.79375,3.882007 3.75375,3.905103 -0.0103,0.0059 -0.94034,0.0796 -2.06716,0.164336 -8.70248,0.654487 -19.8285,2.50576 -30.540299,5.081407 -0.72752,0.174921 -1.35642,0.320021 -1.39684,0.320021 -0.0404,0 0.75586,-0.799311 1.76876,-1.773086 6.29061,-6.047655 9.16045,-9.866293 12.536999,-16.688626 0.50289,-1.016079 0.92929,-1.892664 0.94709,-1.946068 0.001,-0.0033 0.004,-0.0033 0.009,-0.0043 z m -45.996409,4.713811 c 0.28735,0.06449 2.97015,1.312821 4.9949,2.326632 1.85164,0.927124 4.65609,2.420253 4.79599,2.551512 0.0176,0.01649 -0.97036,0.532361 -2.1969,1.146012 -3.88304,1.94272 -7.20911,3.777358 -10.68175,5.898749 -0.99027,0.604945 -1.82029,1.10278 -1.84661,1.10278 -0.0866,0 -0.0525,-0.0749 0.50165,-1.089798 1.84928,-3.386943 3.34101,-7.430766 4.19919,-11.38234 0.0766,-0.352706 0.16877,-0.568079 0.23353,-0.553547 z m -2.70288,0.484353 c 0.056,0.05601 -0.64016,2.613067 -1.08115,3.978629 -0.84579,2.619114 -2.27588,5.911551 -3.64996,8.389718 -0.3227,0.582002 -0.81784,1.433926 -1.09845,1.894175 l -0.5103,0.83464 -1.15899,-1.120063 c -1.34677,-1.305628 -2.44379,-2.11641 -3.84456,-2.836938 -0.55057,-0.283194 -0.9983,-0.545298 -0.99899,-0.583826 -0.003,-0.170326 3.52342,-3.376937 6.24472,-5.678189 1.94792,-1.64725 6.04789,-4.927936 6.09768,-4.878146 z m 16.42482,6.755022 1.00764,0.653005 c 2.31156,1.50081 5.04865,3.519766 7.13558,5.258711 1.1695,0.974508 3.44238,3.009753 3.90943,3.502924 l 0.25083,0.263808 -1.67362,0.467055 c -9.46579,2.626296 -16.77891,4.964291 -25.31186,8.099964 -0.94698,0.348001 -1.76467,0.635722 -1.82066,0.635722 -0.11771,0 -0.23471,0.108205 1.89417,-1.850928 5.45784,-5.02265 10.27919,-10.556527 13.88196,-15.940463 l 0.72653,-1.089798 z m -4.31595,1.081149 c 0.0495,0.04945 -2.79726,4.036419 -4.48893,6.287964 -2.02387,2.69369 -5.62848,7.196667 -8.10861,10.128206 -1.03622,1.224795 -1.92394,2.241108 -1.97202,2.257439 -0.0527,0.01791 -0.0855,-0.28213 -0.0865,-0.756812 -0.005,-2.501333 -0.63764,-5.174653 -1.75579,-7.438307 -0.47227,-0.956103 -0.5514,-1.187513 -0.45408,-1.275749 0.38914,-0.352805 6.41031,-3.786009 10.20604,-5.820908 2.60727,-1.397764 6.61028,-3.431431 6.65988,-3.381833 z m -26.10326,6.396072 c 0.0517,0 0.53471,0.242662 1.0725,0.540581 1.3178,0.730018 2.50172,1.533246 3.54617,2.404476 0.0403,0.03361 -0.50055,0.475415 -1.20224,0.981676 -1.95861,1.413113 -4.9411,3.664062 -6.66853,5.038162 -1.82252,1.44973 -1.88297,1.494179 -1.67794,1.180608 1.36487,-2.087417 2.0511,-3.269256 2.76774,-4.778673 0.63706,-1.341814 1.27197,-2.93465 1.72552,-4.320279 0.18841,-0.575649 0.38506,-1.046551 0.43678,-1.046551 z m 6.95395,5.45764 c 0.0941,-0.01163 0.22799,0.163588 0.78707,0.998988 1.17829,1.760602 2.0806,4.108506 2.31367,6.019841 l 0.0476,0.410829 -2.82395,1.094129 c -5.06915,1.96716 -9.73527,3.906156 -12.8873,5.34952 -0.88186,0.403814 -2.43877,1.147659 -3.45536,1.656327 -1.01658,0.508655 -1.84659,0.908428 -1.84659,0.886535 0,-0.02188 0.6384,-0.501874 1.41846,-1.068167 6.18621,-4.490994 11.51994,-9.407804 15.53827,-14.323065 0.42976,-0.525691 0.8201,-0.981581 0.86925,-1.011956 0.013,-0.008 0.0255,-0.01134 0.0389,-0.01302 z m -3.20885,0.795726 c 0.0818,0.08183 -2.28252,2.75566 -3.87484,4.380823 -3.9854,4.067613 -7.93642,7.256646 -12.83107,10.361734 -0.61241,0.388494 -1.172,0.739762 -1.24549,0.782746 -0.13436,0.07859 0.0434,-0.12347 2.19257,-2.46502 1.35431,-1.475567 2.3909,-2.7005 3.5678,-4.229457 0.77505,-1.006889 0.92308,-1.148142 2.0585,-1.967685 3.05847,-2.207605 10.05118,-6.944484 10.13253,-6.863141 z"
     style="fill:url(#radialGradient2845);fill-opacity:1" />
</svg>
