<?xml version="1.0" encoding="UTF-8" standalone="no"?>
  <svg
    xmlns:dc="http://purl.org/dc/elements/1.1/"
   xmlns:cc="http://creativecommons.org/ns#"
   xmlns:rdf="http://www.w3.org/1999/02/22-rdf-syntax-ns#"
   xmlns:svg="http://www.w3.org/2000/svg"
   xmlns="http://www.w3.org/2000/svg"
   width="100"
   height="100"
   viewBox="0 0 307.97822 296.93784"
   id="svgTelephone">
  <defs
     id="defs4" />
  <metadata
     id="metadata7">
    <rdf:RDF>
      <cc:Work
         rdf:about="">
        <dc:format>image/svg+xml</dc:format>
        <dc:type
           rdf:resource="http://purl.org/dc/dcmitype/StillImage" />
        <dc:title></dc:title>
      </cc:Work>
    </rdf:RDF>
  </metadata>
  <g
     transform="translate(-234.24333,-344.43112)"
     id="telephone"
     style="display:inline">
    <path
       style="display:inline;fill:#7575ff;fill-opacity:1"
       d="m 351.7207,427.9707 c -4.62728,-0.007 -9.24961,0.76621 -12.67187,2.32032 -8.19626,3.72206 -9.22656,6.14015 -9.22656,21.63476 l 0,13.47266 -5.59961,0 c -10.51865,0 -15.02029,2.90427 -23.02539,14.85547 -17.83146,26.62141 -37.11592,62.52674 -43.37891,80.76953 -3.19069,9.29381 -3.47053,11.76547 -3.97461,35 -0.34987,16.12648 -0.0486,26.82683 0.84766,30.14844 1.747,6.4744 5.67282,11.52999 10.64843,13.70898 3.16605,1.38644 25.59232,1.64044 125.32813,1.41602 121.32187,-0.273 121.47552,-0.27688 125,-2.9043 7.63245,-5.68985 8.48848,-8.925 8.9375,-33.75586 0.63911,-35.34299 -2.96778,-49.68409 -20.80274,-82.70899 -10.07385,-18.65369 -30.88082,-49.91003 -35.39453,-53.16992 -2.09256,-1.51128 -6.29472,-2.61427 -11.5625,-3.03711 l -8.27343,-0.66406 0,-13.30078 c 0,-15.30676 -1.05142,-17.75149 -9.22852,-21.46484 -6.84452,-3.10825 -18.48675,-3.0931 -25.37695,0.0351 -7.55094,3.42824 -9.14453,7.35361 -9.14453,22.50977 l 0,12.5625 -15.625,0 -15.625,0 0,-12.5625 c 0,-15.15616 -1.59555,-19.08153 -9.14649,-22.50977 -3.4451,-1.5641 -8.0778,-2.34872 -12.70508,-2.35547 z m 36.85157,55.10547 a 57.85714,57.85714 0 0 1 57.85546,57.85742 57.85714,57.85714 0 0 1 -57.85546,57.85743 57.85714,57.85714 0 0 1 -57.85743,-57.85743 57.85714,57.85714 0 0 1 57.85743,-57.85742 z"
       id="base" />
    <path
       style="display:inline;fill:#7575ff;fill-opacity:1"
       d="m 245.98212,462.00276 c -4.4145,-1.80094 -9.32919,-7.76035 -10.76348,-13.05147 -0.85124,-3.14024 -1.18114,-11.7209 -0.84661,-22.02017 0.67428,-20.75924 2.51448,-25.68062 13.59379,-36.35472 35.13002,-33.84522 72.58476,-46.14528 140.5163,-46.14528 61.59554,0 95.89045,9.55973 128.75839,35.8915 23.11001,18.51431 24.96621,22.20974 24.98092,49.7335 0.0125,22.39274 -1.01997,26.12239 -8.4875,30.6756 -3.64888,2.22486 -6.42707,2.44005 -31.50181,2.44005 -25.24049,0 -27.83473,-0.20409 -31.57393,-2.4839 -5.47728,-3.33954 -9.0407,-9.51659 -9.0464,-15.68163 -0.0127,-13.66747 -6.57885,-27.30083 -18.31476,-38.02678 -13.18489,-12.05025 -30.35901,-17.54834 -54.81491,-17.54834 -25.97778,0 -42.91302,5.83415 -56.59232,19.4959 -9.87247,9.8598 -14.13904,18.74672 -15.29113,31.85016 -0.98794,11.23652 -4.1536,17.37829 -10.51267,20.39586 -3.49419,1.6581 -8.88263,1.99427 -30.91779,1.92884 -14.67735,-0.0436 -27.81109,-0.53819 -29.18609,-1.09912 z"
       id="handset" />
    <circle
       style="display:inline;opacity:1;fill:#ccccff;fill-opacity:1;stroke:#ffffff;stroke-width:0;stroke-linecap:round;stroke-linejoin:miter;stroke-miterlimit:4;stroke-dasharray:none;stroke-opacity:0"
       id="rotary"
       cx="388.65619"
       cy="540.84387"
       r="41.904034" />
  </g>
</svg>