<?xml version="1.0" encoding="UTF-8" standalone="no"?>
<svg
   xmlns:dc="http://purl.org/dc/elements/1.1/"
   xmlns:cc="http://creativecommons.org/ns#"
   xmlns:rdf="http://www.w3.org/1999/02/22-rdf-syntax-ns#"
   xmlns:svg="http://www.w3.org/2000/svg"
   xmlns="http://www.w3.org/2000/svg"
   id="svg2"
   viewBox="0 0 92.111047 33.836061"
   height="42.799511"
   width="611.46118"
   version="1.1">
  <defs
     id="defs4" />
  <metadata
     id="metadata7">
    <rdf:RDF>
      <cc:Work
         rdf:about="">
        <dc:format>image/svg+xml</dc:format>
        <dc:type
           rdf:resource="http://purl.org/dc/dcmitype/StillImage" />
        <dc:title></dc:title>
      </cc:Work>
    </rdf:RDF>
  </metadata>
  <g
     transform="translate(-49.415896,-50.746276)"
     id="layer3">
    <path
       style="fill:none;fill-rule:evenodd;stroke:#ffffff;stroke-width:2.00014496;stroke-linecap:round;stroke-linejoin:miter;stroke-miterlimit:4;stroke-dasharray:none;stroke-opacity:1"
       d="m -144.41273,53.755758 1.41421,27.93071"
       id="path4164" />
    <path
       style="fill:none;fill-rule:evenodd;stroke:#ffffff;stroke-width:1.4300189;stroke-linecap:round;stroke-linejoin:miter;stroke-miterlimit:4;stroke-dasharray:none;stroke-opacity:1"
       d="m -144.45544,53.303388 c 0,0 2.39873,-0.26719 3.70333,-0.32557 1.26882,-0.0568 3.21935,0.0607 3.21935,0.0607"
       id="path4166" />
    <path
       style="fill:none;fill-rule:evenodd;stroke:#ffffff;stroke-width:2;stroke-linecap:round;stroke-linejoin:miter;stroke-miterlimit:4;stroke-dasharray:none;stroke-opacity:1"
       d="m -142.74436,66.480418 3.5625,-0.375"
       id="path4168" />
    <path
       style="fill:none;fill-rule:evenodd;stroke:#ffffff;stroke-width:2;stroke-linecap:round;stroke-linejoin:miter;stroke-miterlimit:4;stroke-dasharray:none;stroke-opacity:1"
       d="m -130.99436,56.605418 c 0,0 -0.16965,5.43576 -0.0541,12.7509 0.14702,9.31142 0.49165,13.4991 0.49165,13.4991"
       id="path4170" />
    <path
       style="fill:none;fill-rule:evenodd;stroke:#ffffff;stroke-width:1.5;stroke-linecap:round;stroke-linejoin:miter;stroke-miterlimit:4;stroke-dasharray:none;stroke-opacity:1"
       d="m -131.68186,55.980418 c 0,0 3.87457,0.17776 5.30249,2.94033 0.99063,1.91655 1.13784,2.90703 -0.0559,5.43352 -0.71081,1.5044 -4.18411,4.06365 -4.18411,4.06365"
       id="path4172" />
    <path
       style="fill:none;fill-rule:evenodd;stroke:#ffffff;stroke-width:1.75;stroke-linecap:round;stroke-linejoin:miter;stroke-miterlimit:4;stroke-dasharray:none;stroke-opacity:1"
       d="m -129.93947,68.119258 c 0,0 1.45022,5.10932 2.28582,7.50931 0.78508,2.25487 2.5762,6.45526 2.5762,6.45526"
       id="path4174" />
    <path
       style="fill:none;fill-rule:evenodd;stroke:#ffffff;stroke-width:2;stroke-linecap:round;stroke-linejoin:miter;stroke-miterlimit:4;stroke-dasharray:none;stroke-opacity:1"
       d="m -114.86936,56.542918 c -1.33113,1.73593 -3.2055,8.98379 -2.71206,13.87466 0.47827,4.74059 1.01091,9.11827 2.83706,10.62534 1.09275,0.90182 2.41894,1.4158 3.5,0.5 3.19906,-2.71001 2.47995,-8.18868 2.25,-12.375 -0.22375,-4.07334 -0.4763,-8.37639 -2.93967,-12.12766 -0.12055,-0.18357 -1.671,-1.68397 -3.49783,-1.49734"
       id="path4180" />
    <path
       style="fill:none;fill-rule:evenodd;stroke:#ffffff;stroke-width:2.5;stroke-linecap:round;stroke-linejoin:miter;stroke-miterlimit:4;stroke-dasharray:none;stroke-opacity:1"
       d="m -99.930023,57.425288 -0.0643,23.99263"
       id="path4183" />
    <path
       style="fill:none;fill-rule:evenodd;stroke:#ffffff;stroke-width:1.99461961;stroke-linecap:round;stroke-linejoin:miter;stroke-miterlimit:4;stroke-dasharray:none;stroke-opacity:1"
       d="m -100.20982,56.222608 c 0,0 4.554187,9.76993 6.257727,13.96021 1.50187,3.69417 4.07952,11.44908 4.07952,11.44908"
       id="path4185" />
    <path
       style="fill:none;fill-rule:evenodd;stroke:#ffffff;stroke-width:1.75;stroke-linecap:round;stroke-linejoin:miter;stroke-miterlimit:4;stroke-dasharray:none;stroke-opacity:1"
       d="m -88.861683,55.810008 c 0,0 -0.13977,8.15746 -0.3034,12.11119 -0.19219,4.64382 -0.76408,13.68146 -0.76408,13.68146"
       id="path4187" />
    <path
       style="fill:none;fill-rule:evenodd;stroke:#ffffff;stroke-width:2;stroke-linecap:round;stroke-linejoin:miter;stroke-miterlimit:4;stroke-dasharray:none;stroke-opacity:1"
       d="m -76.993133,55.602678 c 0,0 -0.2581,7.91215 -0.27524,11.78983 -0.0225,5.0853 0.15634,15.09912 0.15634,15.09912"
       id="path4191" />
    <path
       style="fill:none;fill-rule:evenodd;stroke:#ffffff;stroke-width:2.00014496;stroke-linecap:round;stroke-linejoin:miter;stroke-miterlimit:4;stroke-dasharray:none;stroke-opacity:1"
       d="m -82.319923,55.832878 c 0,0 5.06709,-0.31277 6.49578,-0.24827 1.17876,0.0533 4.55276,0.4692 4.55276,0.4692"
       id="path4189" />
    <path
       id="path4214"
       d="m -48.656193,52.971849 c 0,0 0.3402,5.202081 0.40766,7.80713 0.11621,4.487409 0.0125,8.977861 -0.005,13.46674 -0.009,2.426548 -0.0541,7.279499 -0.0541,7.279499"
       style="fill:none;fill-rule:evenodd;stroke:#ffffff;stroke-width:2.37171364;stroke-linecap:round;stroke-linejoin:miter;stroke-miterlimit:4;stroke-dasharray:none;stroke-opacity:1" />
    <path
       id="path4218"
       d="m -41.913133,53.017788 c 0,0 -2.381069,-0.274052 -3.576995,-0.33838 -1.282365,-0.06898 -3.852325,-0.05069 -3.852325,-0.05069"
       style="fill:none;fill-rule:evenodd;stroke:#ffffff;stroke-width:1.81831384;stroke-linecap:round;stroke-linejoin:miter;stroke-miterlimit:4;stroke-dasharray:none;stroke-opacity:1" />
    <path
       id="path4218-3"
       d="m -44.465053,66.936623 -2.40191,-0.08578"
       style="fill:none;fill-rule:evenodd;stroke:#ffffff;stroke-width:2.37171364;stroke-linecap:round;stroke-linejoin:miter;stroke-miterlimit:4;stroke-dasharray:none;stroke-opacity:1" />
    <path
       id="path4235"
       d="m -47.826393,81.655633 5.70179,-0.06064 0,0"
       style="fill:none;fill-rule:evenodd;stroke:#ffffff;stroke-width:2.13454223;stroke-linecap:round;stroke-linejoin:miter;stroke-miterlimit:4;stroke-dasharray:none;stroke-opacity:1" />
    <path
       style="fill:none;fill-rule:evenodd;stroke:#ffffff;stroke-width:2.5;stroke-linecap:round;stroke-linejoin:miter;stroke-miterlimit:4;stroke-dasharray:none;stroke-opacity:1"
       d="m -33.726116,57.291193 -0.0643,23.99263"
       id="path4183-5" />
    <path
       style="fill:none;fill-rule:evenodd;stroke:#ffffff;stroke-width:1.99461961;stroke-linecap:round;stroke-linejoin:miter;stroke-miterlimit:4;stroke-dasharray:none;stroke-opacity:1"
       d="m -34.005916,56.088514 c 0,0 4.55419,9.76993 6.25773,13.960209 1.50187,3.69417 4.07952,11.44908 4.07952,11.44908"
       id="path4185-0" />
    <path
       style="fill:none;fill-rule:evenodd;stroke:#ffffff;stroke-width:1.75000012;stroke-linecap:round;stroke-linejoin:miter;stroke-miterlimit:4;stroke-dasharray:none;stroke-opacity:1"
       d="m -22.657776,55.675914 c 0,0 -0.13977,8.157459 -0.3034,12.111189 -0.19219,4.64382 -0.76408,13.68146 -0.76408,13.68146"
       id="path4187-0" />
    <path
       id="path4270"
       d="m -14.085858,55.202193 c 0,0 0.466793,6.000876 0.548145,9.007995 0.16084,5.945262 -0.119228,17.841914 -0.119228,17.841914"
       style="fill:none;fill-rule:evenodd;stroke:#ffffff;stroke-width:2.37171364;stroke-linecap:round;stroke-linejoin:miter;stroke-miterlimit:4;stroke-dasharray:none;stroke-opacity:1" />
    <path
       id="path4272"
       d="m -14.802597,54.706527 c 0,0 5.5529137,1.760769 7.2075117,4.47362 1.47472,2.417927 1.989994,5.300753 2.105714,8.313228 0.143039,3.723651 -0.57379,7.674029 -2.252161,10.746244 -1.286482,2.354871 -5.3730737,4.176427 -5.3730737,4.176427"
       style="fill:none;fill-rule:evenodd;stroke:#ffffff;stroke-width:1.97642803;stroke-linecap:round;stroke-linejoin:miter;stroke-miterlimit:4;stroke-dasharray:none;stroke-opacity:1" />
    <path
       id="path4270-8"
       d="m 17.657425,53.637456 c 0,0 0.225044,7.203418 0.290793,10.59497 0.05489,2.831644 0.03047,4.61048 -0.01017,8.213315 -0.04471,3.962951 0.06252,9.199687 0.06252,9.199687"
       style="fill:none;fill-rule:evenodd;stroke:#ffffff;stroke-width:2.37171364;stroke-linecap:round;stroke-linejoin:miter;stroke-miterlimit:4;stroke-dasharray:none;stroke-opacity:1" />
    <path
       id="path4272-3"
       d="m 16.554664,52.712877 c 0,0 6.496517,1.246074 8.151117,3.958925 1.47472,2.417927 1.346632,7.402424 1.462352,10.414899 0.14304,3.723651 -0.57379,7.674029 -2.25216,10.746244 -1.28649,2.354871 -5.37308,4.176427 -5.37308,4.176427"
       style="fill:none;fill-rule:evenodd;stroke:#ffffff;stroke-width:1.97642803;stroke-linecap:round;stroke-linejoin:miter;stroke-miterlimit:4;stroke-dasharray:none;stroke-opacity:1" />
    <path
       id="path4294"
       d="m 35.067496,56.917842 c 0,0 0.233737,5.088424 0.257347,7.63464 0.0525,5.662048 -0.257347,16.984927 -0.257347,16.984927"
       style="fill:none;fill-rule:evenodd;stroke:#ffffff;stroke-width:2.17407084;stroke-linecap:round;stroke-linejoin:miter;stroke-miterlimit:4;stroke-dasharray:none;stroke-opacity:1" />
    <path
       id="path4296"
       d="m 34.390601,56.43868 c 0,0 2.308174,-0.216977 3.463125,-0.172523 0.840652,0.03236 2.503586,0.31896 2.503586,0.31896"
       style="fill:none;fill-rule:evenodd;stroke:#ffffff;stroke-width:1.58114243;stroke-linecap:round;stroke-linejoin:miter;stroke-miterlimit:4;stroke-dasharray:none;stroke-opacity:1" />
    <path
       id="path4298"
       d="m 36.638991,67.674113 2.183662,0"
       style="fill:none;fill-rule:evenodd;stroke:#ffffff;stroke-width:1.58114243;stroke-linecap:round;stroke-linejoin:miter;stroke-miterlimit:4;stroke-dasharray:none;stroke-opacity:1" />
    <path
       id="path4302"
       d="m 35.607809,81.443332 4.003389,-0.121313"
       style="fill:none;fill-rule:evenodd;stroke:#ffffff;stroke-width:2.37171364;stroke-linecap:round;stroke-linejoin:miter;stroke-miterlimit:4;stroke-dasharray:none;stroke-opacity:1" />
    <path
       id="path4304"
       d="m 47.463063,56.403148 c 0,0 1.206253,3.98015 1.714265,5.995801 0.900681,3.573652 1.686078,7.178072 2.362078,10.800949 0.547693,2.935246 1.370847,8.852204 1.370847,8.852204"
       style="fill:none;fill-rule:evenodd;stroke:#ffffff;stroke-width:2.37171364;stroke-linecap:round;stroke-linejoin:miter;stroke-miterlimit:4;stroke-dasharray:none;stroke-opacity:1" />
    <path
       id="path4306"
       d="M 53.424945,82.309455 57.928523,56.188692"
       style="fill:none;fill-rule:evenodd;stroke:#ffffff;stroke-width:1.58114243;stroke-linecap:round;stroke-linejoin:miter;stroke-miterlimit:4;stroke-dasharray:none;stroke-opacity:1" />
    <path
       id="path4294-2"
       d="m 66.359662,57.175254 c 0,0 0.23374,5.088424 0.25735,7.63464 0.0525,5.662049 -0.25735,16.984923 -0.25735,16.984923"
       style="fill:none;fill-rule:evenodd;stroke:#ffffff;stroke-width:2.17407084;stroke-linecap:round;stroke-linejoin:miter;stroke-miterlimit:4;stroke-dasharray:none;stroke-opacity:1" />
    <path
       id="path4296-2"
       d="m 65.682772,56.696092 c 0,0 2.30817,-0.216977 3.46312,-0.172523 0.84065,0.03236 2.50359,0.31896 2.50359,0.31896"
       style="fill:none;fill-rule:evenodd;stroke:#ffffff;stroke-width:1.58114243;stroke-linecap:round;stroke-linejoin:miter;stroke-miterlimit:4;stroke-dasharray:none;stroke-opacity:1" />
    <path
       id="path4298-0"
       d="m 67.931162,67.931525 2.18366,0"
       style="fill:none;fill-rule:evenodd;stroke:#ffffff;stroke-width:1.58114243;stroke-linecap:round;stroke-linejoin:miter;stroke-miterlimit:4;stroke-dasharray:none;stroke-opacity:1" />
    <path
       id="path4302-5"
       d="m 66.899982,81.700747 4.00338,-0.12132"
       style="fill:none;fill-rule:evenodd;stroke:#ffffff;stroke-width:2.37171364;stroke-linecap:round;stroke-linejoin:miter;stroke-miterlimit:4;stroke-dasharray:none;stroke-opacity:1" />
    <path
       style="fill:none;fill-rule:evenodd;stroke:#ffffff;stroke-width:2;stroke-linecap:round;stroke-linejoin:miter;stroke-miterlimit:4;stroke-dasharray:none;stroke-opacity:1"
       d="m 96.546015,56.955717 c -1.33113,1.73593 -3.2055,8.98379 -2.71206,13.87466 0.47827,4.74059 1.01091,9.11827 2.83706,10.62534 1.09275,0.90182 2.41894,1.4158 3.499995,0.5 3.19906,-2.71001 2.47995,-8.18868 2.25,-12.375 -0.22375,-4.07334 -0.4763,-8.37639 -2.939665,-12.12766 -0.12055,-0.18357 -1.671,-1.68397 -3.49783,-1.49734"
       id="path4180-5" />
    <path
       id="path4294-2-7"
       d="m 150.17773,57.267135 c 0,0 0.23374,5.088422 0.25735,7.634642 0.0525,5.66205 -0.25735,16.98492 -0.25735,16.98492"
       style="fill:none;fill-rule:evenodd;stroke:#ffffff;stroke-width:2.17407084;stroke-linecap:round;stroke-linejoin:miter;stroke-miterlimit:4;stroke-dasharray:none;stroke-opacity:1" />
    <path
       id="path4296-2-5"
       d="m 149.50084,56.787973 c 0,0 2.30817,-0.216977 3.46312,-0.172523 0.84065,0.03236 2.50359,0.31896 2.50359,0.31896"
       style="fill:none;fill-rule:evenodd;stroke:#ffffff;stroke-width:1.58114243;stroke-linecap:round;stroke-linejoin:miter;stroke-miterlimit:4;stroke-dasharray:none;stroke-opacity:1" />
    <path
       id="path4298-0-5"
       d="m 151.74923,68.023407 2.18366,0"
       style="fill:none;fill-rule:evenodd;stroke:#ffffff;stroke-width:1.58114243;stroke-linecap:round;stroke-linejoin:miter;stroke-miterlimit:4;stroke-dasharray:none;stroke-opacity:1" />
    <path
       id="path4302-5-6"
       d="m 150.71805,81.792627 4.00338,-0.12132"
       style="fill:none;fill-rule:evenodd;stroke:#ffffff;stroke-width:2.37171364;stroke-linecap:round;stroke-linejoin:miter;stroke-miterlimit:4;stroke-dasharray:none;stroke-opacity:1" />
    <path
       style="fill:none;fill-rule:evenodd;stroke:#ffffff;stroke-width:2.5;stroke-linecap:round;stroke-linejoin:miter;stroke-miterlimit:4;stroke-dasharray:none;stroke-opacity:1"
       d="m 164.25982,57.634323 -0.0643,23.99263"
       id="path4183-5-5" />
    <path
       style="fill:none;fill-rule:evenodd;stroke:#ffffff;stroke-width:1.99461961;stroke-linecap:round;stroke-linejoin:miter;stroke-miterlimit:4;stroke-dasharray:none;stroke-opacity:1"
       d="m 163.98002,56.431644 c 0,0 4.55419,9.769931 6.25773,13.96021 1.50187,3.69417 4.07952,11.449079 4.07952,11.449079"
       id="path4185-0-4" />
    <path
       style="fill:none;fill-rule:evenodd;stroke:#ffffff;stroke-width:1.75000012;stroke-linecap:round;stroke-linejoin:miter;stroke-miterlimit:4;stroke-dasharray:none;stroke-opacity:1"
       d="m 175.32816,56.019044 c 0,0 -0.13977,8.157459 -0.3034,12.111189 -0.19219,4.64382 -0.76408,13.68146 -0.76408,13.68146"
       id="path4187-0-8" />
    <path
       style="fill:none;fill-rule:evenodd;stroke:#ffffff;stroke-width:2;stroke-linecap:round;stroke-linejoin:miter;stroke-miterlimit:4;stroke-dasharray:none;stroke-opacity:1"
       d="m 187.56285,55.747164 c 0,0 -0.2581,7.912151 -0.27524,11.78983 -0.0225,5.085296 0.15634,15.099116 0.15634,15.099116"
       id="path4191-6" />
    <path
       style="fill:none;fill-rule:evenodd;stroke:#ffffff;stroke-width:2.00014496;stroke-linecap:round;stroke-linejoin:miter;stroke-miterlimit:4;stroke-dasharray:none;stroke-opacity:1"
       d="m 182.23606,55.977364 c 0,0 5.06709,-0.31277 6.49578,-0.24827 1.17875,0.0533 4.55275,0.4692 4.55275,0.4692"
       id="path4189-4" />
    <path
       id="path4473"
       d="m 80.961119,56.83206 c 0,0 -0.01115,7.754478 -0.07189,11.631114 -0.07413,4.730718 -0.357021,14.189406 -0.357021,14.189406 0,0 2.234039,-0.78916 3.401749,-0.89644 1.023059,-0.09399 3.073568,0.229209 3.073568,0.229209"
       style="fill:none;fill-rule:evenodd;stroke:#ffffff;stroke-width:2.37171364;stroke-linecap:round;stroke-linejoin:round;stroke-miterlimit:4;stroke-dasharray:none;stroke-opacity:1" />
    <path
       id="path4475"
       d="m 112.09675,56.027899 c 0,0 -0.35427,8.085841 -0.36395,12.131473 -0.0115,4.813666 0.36395,14.436453 0.36395,14.436453"
       style="fill:none;fill-rule:evenodd;stroke:#ffffff;stroke-width:2.37171364;stroke-linecap:round;stroke-linejoin:miter;stroke-miterlimit:4;stroke-dasharray:none;stroke-opacity:1" />
    <path
       id="path4477"
       d="m 110.64097,55.603297 c 0,0 5.12287,0.377534 6.67231,2.123008 1.28466,1.447196 1.21119,3.770348 1.09184,5.701793 -0.12975,2.099658 -0.35283,4.625598 -1.94105,6.005078 -1.06909,0.928582 -4.18535,0.727888 -4.18535,0.727888"
       style="fill:none;fill-rule:evenodd;stroke:#ffffff;stroke-width:1.97642803;stroke-linecap:round;stroke-linejoin:miter;stroke-miterlimit:4;stroke-dasharray:none;stroke-opacity:1" />
    <path
       id="path4479"
       d="m 126.1086,56.513158 c 0,0 -0.48083,8.772425 -0.5509,13.16356 -0.0677,4.24538 0.1263,12.737134 0.1263,12.737134"
       style="fill:none;fill-rule:evenodd;stroke:#ffffff;stroke-width:2.37171364;stroke-linecap:round;stroke-linejoin:miter;stroke-miterlimit:4;stroke-dasharray:none;stroke-opacity:1" />
    <path
       id="path4483"
       d="m 125.92663,55.30001 c 0,0 3.27273,8.321028 4.51764,12.608371 1.09301,3.764178 2.57927,11.472603 2.57927,11.472603 0,0 2.72223,-8.20623 3.93134,-12.355665 1.01997,-3.500326 2.80162,-10.572818 2.80162,-10.572818"
       style="fill:none;fill-rule:evenodd;stroke:#ffffff;stroke-width:1.97642803;stroke-linecap:round;stroke-linejoin:round;stroke-miterlimit:4;stroke-dasharray:none;stroke-opacity:1" />
    <path
       id="path4485"
       d="m 139.87782,55.906584 c 0,0 0.0646,9.260479 0.17292,13.889355 0.0985,4.207301 0.43366,12.61791 0.43366,12.61791"
       style="fill:none;fill-rule:evenodd;stroke:#ffffff;stroke-width:2.37171364;stroke-linecap:round;stroke-linejoin:miter;stroke-miterlimit:4;stroke-dasharray:none;stroke-opacity:1" />
    <path
       id="path4487"
       d="m 226.25391,82.717139 c 0,0 -4.20424,-0.515084 -5.64113,-1.880382 -3.90323,-3.708762 -5.88377,-15.043022 -5.88377,-15.043022 0,0 -0.60487,-4.04722 -0.52794,-7.5831 0.0397,-1.825791 0.43914,-3.224095 1.55911,-4.002457 1.29686,-0.901296 2.99871,0.05347 3.82142,1.091832 0.52797,0.666357 0.3295,1.723331 0.12131,2.54761 -1.29497,5.127013 -6.82886,8.47707 -8.18874,13.587249 -0.70212,2.638433 -0.94704,5.70286 0.18197,8.188745 0.65691,1.446399 1.9439,3.001759 3.51813,3.214838 2.33877,0.316563 4.92742,-1.300926 6.30837,-3.214838 1.73508,-2.404716 1.33446,-8.795319 1.33446,-8.795319"
       style="fill:none;fill-rule:evenodd;stroke:#ffffff;stroke-width:1.97642803;stroke-linecap:round;stroke-linejoin:round;stroke-miterlimit:4;stroke-dasharray:none;stroke-opacity:1" />
    <path
       id="path4489"
       d="m 221.21935,70.767639 c 0,0 1.73799,0.07993 2.59733,-0.02581 0.91164,-0.112176 2.67986,-0.641423 2.67986,-0.641423"
       style="fill:none;fill-rule:evenodd;stroke:#ffffff;stroke-width:2.37171364;stroke-linecap:round;stroke-linejoin:miter;stroke-miterlimit:4;stroke-dasharray:none;stroke-opacity:1" />
    <path
       id="path4270-8-9"
       d="m 246.68942,53.888258 c 0,0 0.22504,7.203418 0.29079,10.59497 0.0549,2.831645 0.0305,4.610481 -0.0102,8.213316 -0.0447,3.962951 0.0625,9.199685 0.0625,9.199685"
       style="fill:none;fill-rule:evenodd;stroke:#ffffff;stroke-width:2.37171364;stroke-linecap:round;stroke-linejoin:miter;stroke-miterlimit:4;stroke-dasharray:none;stroke-opacity:1" />
    <path
       id="path4272-3-0"
       d="m 245.58665,52.963679 c 0,0 6.49652,1.246075 8.15112,3.958926 1.47472,2.417927 1.34663,7.402424 1.46235,10.414899 0.14304,3.723651 -0.57379,7.674028 -2.25216,10.746244 -1.28649,2.354871 -5.37308,4.176431 -5.37308,4.176431"
       style="fill:none;fill-rule:evenodd;stroke:#ffffff;stroke-width:1.97642803;stroke-linecap:round;stroke-linejoin:miter;stroke-miterlimit:4;stroke-dasharray:none;stroke-opacity:1" />
    <path
       id="path4294-2-7-3"
       d="m 264.83056,57.175257 c 0,0 0.23374,5.088422 0.25735,7.634642 0.0525,5.662046 -0.25735,16.984916 -0.25735,16.984916"
       style="fill:none;fill-rule:evenodd;stroke:#ffffff;stroke-width:2.17407084;stroke-linecap:round;stroke-linejoin:miter;stroke-miterlimit:4;stroke-dasharray:none;stroke-opacity:1" />
    <path
       id="path4296-2-5-5"
       d="m 264.15367,56.696095 c 0,0 2.30817,-0.216977 3.46312,-0.172523 0.84065,0.03236 2.50359,0.31896 2.50359,0.31896"
       style="fill:none;fill-rule:evenodd;stroke:#ffffff;stroke-width:1.58114243;stroke-linecap:round;stroke-linejoin:miter;stroke-miterlimit:4;stroke-dasharray:none;stroke-opacity:1" />
    <path
       id="path4298-0-5-3"
       d="m 266.40206,67.931525 2.18366,0"
       style="fill:none;fill-rule:evenodd;stroke:#ffffff;stroke-width:1.58114243;stroke-linecap:round;stroke-linejoin:miter;stroke-miterlimit:4;stroke-dasharray:none;stroke-opacity:1" />
    <path
       id="path4302-5-6-9"
       d="m 265.37088,81.700745 4.00338,-0.12132"
       style="fill:none;fill-rule:evenodd;stroke:#ffffff;stroke-width:2.37171364;stroke-linecap:round;stroke-linejoin:miter;stroke-miterlimit:4;stroke-dasharray:none;stroke-opacity:1" />
    <path
       id="path4494"
       d="m 283.40774,57.260972 c 0,0 -1.42863,-1.465972 -2.23034,-1.200955 -1.91897,0.634349 -2.54054,3.469243 -2.57348,5.490079 -0.072,4.418575 4.42571,7.836262 5.23273,12.18111 0.40761,2.194459 0.93703,4.80549 -0.25734,6.691031 -0.62963,0.993988 -1.95476,1.65763 -3.13106,1.629867 -1.10806,-0.02615 -2.87372,-1.67276 -2.87372,-1.67276"
       style="fill:none;fill-rule:evenodd;stroke:#ffffff;stroke-width:2.37171364;stroke-linecap:round;stroke-linejoin:round;stroke-miterlimit:4;stroke-dasharray:none;stroke-opacity:1" />
    <path
       id="path4496"
       d="m 295.76042,56.660495 c 0,0 -0.57608,8.173848 -0.52392,12.265865 0.0541,4.24179 0.86704,12.696835 0.86704,12.696835"
       style="fill:none;fill-rule:evenodd;stroke:#ffffff;stroke-width:2.37171364;stroke-linecap:round;stroke-linejoin:miter;stroke-miterlimit:4;stroke-dasharray:none;stroke-opacity:1" />
    <path
       id="path4498"
       d="m 291.90021,56.317365 8.06355,-0.08578"
       style="fill:none;fill-rule:evenodd;stroke:#ffffff;stroke-width:1.97642803;stroke-linecap:round;stroke-linejoin:miter;stroke-miterlimit:4;stroke-dasharray:none;stroke-opacity:1" />
    <path
       id="path4500"
       d="m 292.84382,82.137886 c 0.51469,0.08579 7.03417,-0.08578 7.03417,-0.08578"
       style="fill:none;fill-rule:evenodd;stroke:#ffffff;stroke-width:1.97642803;stroke-linecap:round;stroke-linejoin:miter;stroke-miterlimit:4;stroke-dasharray:none;stroke-opacity:1" />
    <path
       id="path4502"
       d="m 316.60555,58.118796 c 0,0 -3.70521,-2.0231 -5.4043,-1.286736 -2.32675,1.008388 -3.25932,4.122249 -3.77441,6.60525 -1.05767,5.09849 -0.83573,10.987486 1.71564,15.526623 0.84913,1.510675 2.3911,3.024022 4.11757,3.173954 1.28696,0.111766 2.78646,-0.682072 3.43129,-1.801435 1.35715,-2.355904 -0.34313,-8.149331 -0.34313,-8.149331"
       style="fill:none;fill-rule:evenodd;stroke:#ffffff;stroke-width:2.37171364;stroke-linecap:round;stroke-linejoin:miter;stroke-miterlimit:4;stroke-dasharray:none;stroke-opacity:1" />
    <path
       id="path4504"
       d="m 313.0235,71.822438 c 2.43959,-0.609562 4.19238,-0.532325 5.83321,-0.34313"
       style="fill:none;fill-rule:evenodd;stroke:#ffffff;stroke-width:1.58114243;stroke-linecap:round;stroke-linejoin:miter;stroke-miterlimit:4;stroke-dasharray:none;stroke-opacity:1" />
    <path
       style="fill:none;fill-rule:evenodd;stroke:#ffffff;stroke-width:2.5;stroke-linecap:round;stroke-linejoin:miter;stroke-miterlimit:4;stroke-dasharray:none;stroke-opacity:1"
       d="m 325.63393,57.447756 -0.0643,23.992631"
       id="path4183-5-5-8" />
    <path
       style="fill:none;fill-rule:evenodd;stroke:#ffffff;stroke-width:1.99461961;stroke-linecap:round;stroke-linejoin:miter;stroke-miterlimit:4;stroke-dasharray:none;stroke-opacity:1"
       d="m 325.35413,56.245077 c 0,0 4.55419,9.769932 6.25773,13.96021 1.50187,3.69417 4.07952,11.44908 4.07952,11.44908"
       id="path4185-0-4-0" />
    <path
       style="fill:none;fill-rule:evenodd;stroke:#ffffff;stroke-width:1.75000012;stroke-linecap:round;stroke-linejoin:miter;stroke-miterlimit:4;stroke-dasharray:none;stroke-opacity:1"
       d="m 336.70227,55.832477 c 0,0 -0.13977,8.157459 -0.3034,12.11119 -0.19219,4.64382 -0.76408,13.68146 -0.76408,13.68146"
       id="path4187-0-8-0" />
  </g>
</svg>
